<svg width="19" height="19" viewBox="0 0 19 19" fill="none" xmlns="http://www.w3.org/2000/svg">
<path d="M8.46025 3.19922C8.10221 3.19922 7.75883 3.34145 7.50566 3.59462C7.25249 3.8478 7.11025 4.19118 7.11025 4.54922V6.80012H4.86025C4.50221 6.80012 4.15883 6.94235 3.90566 7.19553C3.65249 7.4487 3.51025 7.79208 3.51025 8.15012V10.8501C3.51025 11.2082 3.65249 11.5515 3.90566 11.8047C4.15883 12.0579 4.50221 12.2001 4.86025 12.2001H7.11025V14.4501C7.11025 14.8082 7.25249 15.1515 7.50566 15.4047C7.75883 15.6579 8.10221 15.8001 8.46025 15.8001H11.1603C11.5183 15.8001 11.8617 15.6579 12.1148 15.4047C12.368 15.1515 12.5103 14.8082 12.5103 14.4501V12.2001H14.7603C15.1183 12.2001 15.4617 12.0579 15.7148 11.8047C15.968 11.5515 16.1103 11.2082 16.1103 10.8501V8.15012C16.1103 7.79208 15.968 7.4487 15.7148 7.19553C15.4617 6.94235 15.1183 6.80012 14.7603 6.80012H12.5103V4.54922C12.5103 4.19118 12.368 3.8478 12.1148 3.59462C11.8617 3.34145 11.5183 3.19922 11.1603 3.19922H8.46025Z" fill="#3E3E3E" fill-opacity="0.8"/>
</svg>
