<svg width="285" height="245" viewBox="0 0 285 245" fill="none" xmlns="http://www.w3.org/2000/svg">
<g clip-path="url(#clip0_13_153)">
<g clip-path="url(#clip1_13_153)">
<g clip-path="url(#clip2_13_153)">
<g filter="url(#filter0_d_13_153)">
<path d="M261.373 10.9199H23.1272C16.0153 10.9199 10.25 16.6852 10.25 23.7971V222.043C10.25 229.155 16.0153 234.92 23.1272 234.92H261.373C268.485 234.92 274.25 229.155 274.25 222.043V23.7971C274.25 16.6852 268.485 10.9199 261.373 10.9199Z" fill="white"/>
<path d="M261.373 11.4199H23.1272C16.2915 11.4199 10.75 16.9614 10.75 23.7971V222.043C10.75 228.878 16.2915 234.42 23.1272 234.42H261.373C268.209 234.42 273.75 228.878 273.75 222.043V23.7971C273.75 16.9614 268.209 11.4199 261.373 11.4199Z" stroke="#F2F4F7"/>
</g>
<path d="M70.2939 129.92V121.4H71.6979V129.92H70.2939ZM73.1998 129.92V123.92H74.5198V124.736C74.8958 124.112 75.5038 123.8 76.3438 123.8C77.0398 123.8 77.5958 124.028 78.0118 124.484C78.4278 124.94 78.6358 125.548 78.6358 126.308V129.92H77.3158V126.524C77.3158 126.044 77.2038 125.672 76.9798 125.408C76.7558 125.136 76.4518 125 76.0678 125C75.6118 125 75.2398 125.172 74.9518 125.516C74.6638 125.86 74.5198 126.344 74.5198 126.968V129.92H73.1998ZM79.8208 127.208V125.912H83.0488V127.208H79.8208ZM89.248 129.14C88.648 129.74 87.904 130.04 87.016 130.04C86.128 130.04 85.38 129.74 84.772 129.14C84.172 128.532 83.872 127.792 83.872 126.92C83.872 126.048 84.172 125.312 84.772 124.712C85.38 124.104 86.128 123.8 87.016 123.8C87.904 123.8 88.648 124.104 89.248 124.712C89.856 125.312 90.16 126.048 90.16 126.92C90.16 127.792 89.856 128.532 89.248 129.14ZM87.016 128.816C87.536 128.816 87.964 128.636 88.3 128.276C88.644 127.908 88.816 127.456 88.816 126.92C88.816 126.384 88.644 125.936 88.3 125.576C87.964 125.208 87.536 125.024 87.016 125.024C86.488 125.024 86.052 125.208 85.708 125.576C85.372 125.936 85.204 126.384 85.204 126.92C85.204 127.456 85.372 127.908 85.708 128.276C86.052 128.636 86.488 128.816 87.016 128.816ZM100.682 122.612C100.442 122.612 100.234 122.528 100.058 122.36C99.8821 122.184 99.7941 121.972 99.7941 121.724C99.7941 121.484 99.8821 121.28 100.058 121.112C100.234 120.936 100.442 120.848 100.682 120.848C100.93 120.848 101.138 120.936 101.306 121.112C101.474 121.28 101.558 121.484 101.558 121.724C101.558 121.972 101.474 122.184 101.306 122.36C101.138 122.528 100.93 122.612 100.682 122.612ZM100.022 129.92V123.92H101.342V129.92H100.022ZM91.5861 129.92V125.096H90.3382V123.92H91.5861V122.84C91.5861 122.192 91.7741 121.7 92.1501 121.364C92.5341 121.02 93.0301 120.848 93.6381 120.848C94.0061 120.848 94.3341 120.896 94.6221 120.992V122.168C94.4941 122.088 94.2581 122.048 93.9141 122.048C93.5621 122.048 93.3061 122.128 93.1461 122.288C92.9861 122.44 92.9061 122.7 92.9061 123.068V123.92H94.3102V125.096H92.9061V129.92H91.5861ZM95.9301 129.92V125.096H94.9341V123.92H95.9301V122.84C95.9301 122.192 96.1181 121.7 96.4941 121.364C96.8781 121.02 97.3741 120.848 97.9821 120.848C98.3261 120.848 98.6541 120.896 98.9661 120.992V122.168C98.7821 122.088 98.5461 122.048 98.2581 122.048C97.9061 122.048 97.6501 122.128 97.4901 122.288C97.3301 122.44 97.2501 122.7 97.2501 123.068V123.92H98.9661V125.096H97.2501V129.92H95.9301ZM105.48 130.04C104.576 130.04 103.824 129.74 103.224 129.14C102.632 128.532 102.336 127.792 102.336 126.92C102.336 126.048 102.632 125.312 103.224 124.712C103.824 124.104 104.576 123.8 105.48 123.8C106.256 123.8 106.916 124.016 107.46 124.448C108.012 124.88 108.368 125.436 108.528 126.116H107.136C107.016 125.78 106.808 125.512 106.512 125.312C106.224 125.104 105.88 125 105.48 125C104.952 125 104.52 125.18 104.184 125.54C103.848 125.9 103.68 126.36 103.68 126.92C103.68 127.48 103.848 127.94 104.184 128.3C104.52 128.66 104.952 128.84 105.48 128.84C105.88 128.84 106.224 128.74 106.512 128.54C106.808 128.332 107.016 128.06 107.136 127.724H108.528C108.368 128.404 108.012 128.96 107.46 129.392C106.916 129.824 106.256 130.04 105.48 130.04ZM112.067 130.04C111.171 130.04 110.435 129.748 109.859 129.164C109.283 128.572 108.995 127.824 108.995 126.92C108.995 126.016 109.279 125.272 109.847 124.688C110.415 124.096 111.159 123.8 112.079 123.8C113.007 123.8 113.755 124.124 114.323 124.772C114.891 125.412 115.143 126.236 115.079 127.244H110.303C110.319 127.708 110.495 128.096 110.831 128.408C111.167 128.72 111.595 128.876 112.115 128.876C112.851 128.876 113.355 128.596 113.627 128.036H115.007C114.823 128.62 114.471 129.1 113.951 129.476C113.431 129.852 112.803 130.04 112.067 130.04ZM112.043 124.904C111.611 124.904 111.239 125.028 110.927 125.276C110.623 125.516 110.427 125.86 110.339 126.308H113.663C113.567 125.844 113.371 125.496 113.075 125.264C112.779 125.024 112.435 124.904 112.043 124.904Z" fill="#73B2FF"/>
<path d="M42.25 148.92V234.92H142.25V148.92C142.25 142.293 136.877 136.92 130.25 136.92H54.25C47.6226 136.92 42.25 142.293 42.25 148.92Z" fill="#79C1BA"/>
<path d="M142.25 73.9199V234.92H242.25V73.9199C242.25 67.2925 236.877 61.9199 230.25 61.9199H154.25C147.623 61.9199 142.25 67.2925 142.25 73.9199Z" fill="#73B2FF"/>
<path d="M145.336 41.676L142.18 50.04H140.92L137.764 41.676H138.928L141.556 48.888L144.184 41.676H145.336ZM146.125 46.728C146.125 46.056 146.261 45.468 146.533 44.964C146.805 44.452 147.177 44.056 147.649 43.776C148.129 43.496 148.661 43.356 149.245 43.356C149.821 43.356 150.321 43.48 150.745 43.728C151.169 43.976 151.485 44.288 151.693 44.664V43.464H152.797V50.04H151.693V48.816C151.477 49.2 151.153 49.52 150.721 49.776C150.297 50.024 149.801 50.148 149.233 50.148C148.649 50.148 148.121 50.004 147.649 49.716C147.177 49.428 146.805 49.024 146.533 48.504C146.261 47.984 146.125 47.392 146.125 46.728ZM151.693 46.74C151.693 46.244 151.593 45.812 151.393 45.444C151.193 45.076 150.921 44.796 150.577 44.604C150.241 44.404 149.869 44.304 149.461 44.304C149.053 44.304 148.681 44.4 148.345 44.592C148.009 44.784 147.741 45.064 147.541 45.432C147.341 45.8 147.241 46.232 147.241 46.728C147.241 47.232 147.341 47.672 147.541 48.048C147.741 48.416 148.009 48.7 148.345 48.9C148.681 49.092 149.053 49.188 149.461 49.188C149.869 49.188 150.241 49.092 150.577 48.9C150.921 48.7 151.193 48.416 151.393 48.048C151.593 47.672 151.693 47.236 151.693 46.74ZM157.355 43.356C157.923 43.356 158.419 43.48 158.843 43.728C159.275 43.976 159.595 44.288 159.803 44.664V43.464H160.907V50.184C160.907 50.784 160.779 51.316 160.523 51.78C160.267 52.252 159.899 52.62 159.419 52.884C158.947 53.148 158.395 53.28 157.763 53.28C156.899 53.28 156.179 53.076 155.603 52.668C155.027 52.26 154.687 51.704 154.583 51H155.663C155.783 51.4 156.031 51.72 156.407 51.96C156.783 52.208 157.235 52.332 157.763 52.332C158.363 52.332 158.851 52.144 159.227 51.768C159.611 51.392 159.803 50.864 159.803 50.184V48.804C159.587 49.188 159.267 49.508 158.843 49.764C158.419 50.02 157.923 50.148 157.355 50.148C156.771 50.148 156.239 50.004 155.759 49.716C155.287 49.428 154.915 49.024 154.643 48.504C154.371 47.984 154.235 47.392 154.235 46.728C154.235 46.056 154.371 45.468 154.643 44.964C154.915 44.452 155.287 44.056 155.759 43.776C156.239 43.496 156.771 43.356 157.355 43.356ZM159.803 46.74C159.803 46.244 159.703 45.812 159.503 45.444C159.303 45.076 159.031 44.796 158.687 44.604C158.351 44.404 157.979 44.304 157.571 44.304C157.163 44.304 156.791 44.4 156.455 44.592C156.119 44.784 155.851 45.064 155.651 45.432C155.451 45.8 155.351 46.232 155.351 46.728C155.351 47.232 155.451 47.672 155.651 48.048C155.851 48.416 156.119 48.7 156.455 48.9C156.791 49.092 157.163 49.188 157.571 49.188C157.979 49.188 158.351 49.092 158.687 48.9C159.031 48.7 159.303 48.416 159.503 48.048C159.703 47.672 159.803 47.236 159.803 46.74ZM168.584 43.464V50.04H167.492V49.068C167.284 49.404 166.992 49.668 166.616 49.86C166.248 50.044 165.84 50.136 165.392 50.136C164.88 50.136 164.42 50.032 164.012 49.824C163.604 49.608 163.28 49.288 163.04 48.864C162.808 48.44 162.692 47.924 162.692 47.316V43.464H163.772V47.172C163.772 47.82 163.936 48.32 164.264 48.672C164.592 49.016 165.04 49.188 165.608 49.188C166.192 49.188 166.652 49.008 166.988 48.648C167.324 48.288 167.492 47.764 167.492 47.076V43.464H168.584ZM172.756 50.148C172.252 50.148 171.8 50.064 171.4 49.896C171 49.72 170.684 49.48 170.452 49.176C170.22 48.864 170.092 48.508 170.068 48.108H171.196C171.228 48.436 171.38 48.704 171.652 48.912C171.932 49.12 172.296 49.224 172.744 49.224C173.16 49.224 173.488 49.132 173.728 48.948C173.968 48.764 174.088 48.532 174.088 48.252C174.088 47.964 173.96 47.752 173.704 47.616C173.448 47.472 173.052 47.332 172.516 47.196C172.028 47.068 171.628 46.94 171.316 46.812C171.012 46.676 170.748 46.48 170.524 46.224C170.308 45.96 170.2 45.616 170.2 45.192C170.2 44.856 170.3 44.548 170.5 44.268C170.7 43.988 170.984 43.768 171.352 43.608C171.72 43.44 172.14 43.356 172.612 43.356C173.34 43.356 173.928 43.54 174.376 43.908C174.824 44.276 175.064 44.78 175.096 45.42H174.004C173.98 45.076 173.84 44.8 173.584 44.592C173.336 44.384 173 44.28 172.576 44.28C172.184 44.28 171.872 44.364 171.64 44.532C171.408 44.7 171.292 44.92 171.292 45.192C171.292 45.408 171.36 45.588 171.496 45.732C171.64 45.868 171.816 45.98 172.024 46.068C172.24 46.148 172.536 46.24 172.912 46.344C173.384 46.472 173.768 46.6 174.064 46.728C174.36 46.848 174.612 47.032 174.82 47.28C175.036 47.528 175.148 47.852 175.156 48.252C175.156 48.612 175.056 48.936 174.856 49.224C174.656 49.512 174.372 49.74 174.004 49.908C173.644 50.068 173.228 50.148 172.756 50.148ZM188.381 41.736V50.04H187.289V43.848L184.529 50.04H183.761L180.989 43.836V50.04H179.897V41.736H181.073L184.145 48.6L187.217 41.736H188.381ZM190.797 42.396C190.589 42.396 190.413 42.324 190.269 42.18C190.125 42.036 190.053 41.86 190.053 41.652C190.053 41.444 190.125 41.268 190.269 41.124C190.413 40.98 190.589 40.908 190.797 40.908C190.997 40.908 191.165 40.98 191.301 41.124C191.445 41.268 191.517 41.444 191.517 41.652C191.517 41.86 191.445 42.036 191.301 42.18C191.165 42.324 190.997 42.396 190.797 42.396ZM191.325 43.464V50.04H190.233V43.464H191.325ZM196.39 43.344C197.19 43.344 197.838 43.588 198.334 44.076C198.83 44.556 199.078 45.252 199.078 46.164V50.04H197.998V46.32C197.998 45.664 197.834 45.164 197.506 44.82C197.178 44.468 196.73 44.292 196.162 44.292C195.586 44.292 195.126 44.472 194.782 44.832C194.446 45.192 194.278 45.716 194.278 46.404V50.04H193.186V43.464H194.278V44.4C194.494 44.064 194.786 43.804 195.154 43.62C195.53 43.436 195.942 43.344 196.39 43.344ZM200.454 46.728C200.454 46.056 200.59 45.468 200.862 44.964C201.134 44.452 201.506 44.056 201.978 43.776C202.458 43.496 202.994 43.356 203.586 43.356C204.098 43.356 204.574 43.476 205.014 43.716C205.454 43.948 205.79 44.256 206.022 44.64V41.16H207.126V50.04H206.022V48.804C205.806 49.196 205.486 49.52 205.062 49.776C204.638 50.024 204.142 50.148 203.574 50.148C202.99 50.148 202.458 50.004 201.978 49.716C201.506 49.428 201.134 49.024 200.862 48.504C200.59 47.984 200.454 47.392 200.454 46.728ZM206.022 46.74C206.022 46.244 205.922 45.812 205.722 45.444C205.522 45.076 205.25 44.796 204.906 44.604C204.57 44.404 204.198 44.304 203.79 44.304C203.382 44.304 203.01 44.4 202.674 44.592C202.338 44.784 202.07 45.064 201.87 45.432C201.67 45.8 201.57 46.232 201.57 46.728C201.57 47.232 201.67 47.672 201.87 48.048C202.07 48.416 202.338 48.7 202.674 48.9C203.01 49.092 203.382 49.188 203.79 49.188C204.198 49.188 204.57 49.092 204.906 48.9C205.25 48.7 205.522 48.416 205.722 48.048C205.922 47.672 206.022 47.236 206.022 46.74ZM218.614 41.676V50.04H217.522V46.248H213.262V50.04H212.17V41.676H213.262V45.348H217.522V41.676H218.614ZM226.479 46.5C226.479 46.708 226.467 46.928 226.443 47.16H221.187C221.227 47.808 221.447 48.316 221.847 48.684C222.255 49.044 222.747 49.224 223.323 49.224C223.795 49.224 224.187 49.116 224.499 48.9C224.819 48.676 225.043 48.38 225.171 48.012H226.347C226.171 48.644 225.819 49.16 225.291 49.56C224.763 49.952 224.107 50.148 223.323 50.148C222.699 50.148 222.139 50.008 221.643 49.728C221.155 49.448 220.771 49.052 220.491 48.54C220.211 48.02 220.071 47.42 220.071 46.74C220.071 46.06 220.207 45.464 220.479 44.952C220.751 44.44 221.131 44.048 221.619 43.776C222.115 43.496 222.683 43.356 223.323 43.356C223.947 43.356 224.499 43.492 224.979 43.764C225.459 44.036 225.827 44.412 226.083 44.892C226.347 45.364 226.479 45.9 226.479 46.5ZM225.351 46.272C225.351 45.856 225.259 45.5 225.075 45.204C224.891 44.9 224.639 44.672 224.319 44.52C224.007 44.36 223.659 44.28 223.275 44.28C222.723 44.28 222.251 44.456 221.859 44.808C221.475 45.16 221.255 45.648 221.199 46.272H225.351ZM227.512 46.728C227.512 46.056 227.648 45.468 227.92 44.964C228.192 44.452 228.564 44.056 229.036 43.776C229.516 43.496 230.048 43.356 230.632 43.356C231.208 43.356 231.708 43.48 232.132 43.728C232.556 43.976 232.872 44.288 233.08 44.664V43.464H234.184V50.04H233.08V48.816C232.864 49.2 232.54 49.52 232.108 49.776C231.684 50.024 231.188 50.148 230.62 50.148C230.036 50.148 229.508 50.004 229.036 49.716C228.564 49.428 228.192 49.024 227.92 48.504C227.648 47.984 227.512 47.392 227.512 46.728ZM233.08 46.74C233.08 46.244 232.98 45.812 232.78 45.444C232.58 45.076 232.308 44.796 231.964 44.604C231.628 44.404 231.256 44.304 230.848 44.304C230.44 44.304 230.068 44.4 229.732 44.592C229.396 44.784 229.128 45.064 228.928 45.432C228.728 45.8 228.628 46.232 228.628 46.728C228.628 47.232 228.728 47.672 228.928 48.048C229.128 48.416 229.396 48.7 229.732 48.9C230.068 49.092 230.44 49.188 230.848 49.188C231.256 49.188 231.628 49.092 231.964 48.9C232.308 48.7 232.58 48.416 232.78 48.048C232.98 47.672 233.08 47.236 233.08 46.74ZM237.121 41.16V50.04H236.029V41.16H237.121ZM240.315 44.364V48.24C240.315 48.56 240.383 48.788 240.519 48.924C240.655 49.052 240.891 49.116 241.227 49.116H242.031V50.04H241.047C240.439 50.04 239.983 49.9 239.679 49.62C239.375 49.34 239.223 48.88 239.223 48.24V44.364H238.371V43.464H239.223V41.808H240.315V43.464H242.031V44.364H240.315ZM246.618 43.344C247.114 43.344 247.562 43.452 247.962 43.668C248.362 43.876 248.674 44.192 248.898 44.616C249.13 45.04 249.246 45.556 249.246 46.164V50.04H248.166V46.32C248.166 45.664 248.002 45.164 247.674 44.82C247.346 44.468 246.898 44.292 246.33 44.292C245.754 44.292 245.294 44.472 244.95 44.832C244.614 45.192 244.446 45.716 244.446 46.404V50.04H243.354V41.16H244.446V44.4C244.662 44.064 244.958 43.804 245.334 43.62C245.718 43.436 246.146 43.344 246.618 43.344Z" fill="#3A60C4"/>
</g>
</g>
</g>
<defs>
<filter id="filter0_d_13_153" x="0.25" y="0.919922" width="284" height="244" filterUnits="userSpaceOnUse" color-interpolation-filters="sRGB">
<feFlood flood-opacity="0" result="BackgroundImageFix"/>
<feColorMatrix in="SourceAlpha" type="matrix" values="0 0 0 0 0 0 0 0 0 0 0 0 0 0 0 0 0 0 127 0" result="hardAlpha"/>
<feOffset/>
<feGaussianBlur stdDeviation="5"/>
<feComposite in2="hardAlpha" operator="out"/>
<feColorMatrix type="matrix" values="0 0 0 0 0.619608 0 0 0 0 0.596078 0 0 0 0 0.596078 0 0 0 0.1 0"/>
<feBlend mode="normal" in2="BackgroundImageFix" result="effect1_dropShadow_13_153"/>
<feBlend mode="normal" in="SourceGraphic" in2="effect1_dropShadow_13_153" result="shape"/>
</filter>
<clipPath id="clip0_13_153">
<rect width="284" height="244" fill="white" transform="translate(0.25 0.919922)"/>
</clipPath>
<clipPath id="clip1_13_153">
<rect width="284" height="244" fill="white" transform="translate(0.25 0.919922)"/>
</clipPath>
<clipPath id="clip2_13_153">
<rect width="284" height="244" fill="white" transform="translate(0.25 0.919922)"/>
</clipPath>
</defs>
</svg>
