<svg width="19" height="17" viewBox="0 0 19 17" fill="none" xmlns="http://www.w3.org/2000/svg">
<path d="M7.15833 15.4506L2.73444 11.3973C1.56115 10.3223 0.862958 8.82523 0.793457 7.23545C0.723956 5.64567 1.28884 4.09339 2.36384 2.9201C3.43884 1.74681 4.9359 1.04862 6.52568 0.979121C8.11546 0.90962 9.66773 1.4745 10.841 2.5495L16.7395 7.95389C17.5217 8.67056 17.9872 9.6686 18.0335 10.7285C18.0799 11.7883 17.7033 12.8232 16.9866 13.6054C16.2699 14.3875 15.2719 14.853 14.2121 14.8993C13.1522 14.9457 12.1173 14.5691 11.3352 13.8524L5.43663 8.44803C5.04554 8.08969 4.81281 7.59067 4.78964 7.06075C4.76647 6.53082 4.95477 6.01339 5.3131 5.6223C5.67143 5.2312 6.17045 4.99847 6.70038 4.9753C7.23031 4.95214 7.74773 5.14043 8.13883 5.49876L14.0374 10.9032" stroke="#3E3E3E" stroke-width="1.5" stroke-linecap="round" stroke-linejoin="round"/>
</svg>
