<svg width="34" height="34" viewBox="0 0 34 34" fill="none" xmlns="http://www.w3.org/2000/svg">
<g clip-path="url(#clip0_162_48213)">
<path d="M15.1583 23.4506L10.7344 19.3973C9.56115 18.3223 8.86296 16.8252 8.79346 15.2354C8.72396 13.6457 9.28884 12.0934 10.3638 10.9201C11.4388 9.74681 12.9359 9.04862 14.5257 8.97912C16.1155 8.90962 17.6677 9.4745 18.841 10.5495L24.7395 15.9539C25.5217 16.6706 25.9872 17.6686 26.0335 18.7285C26.0799 19.7883 25.7033 20.8232 24.9866 21.6054C24.2699 22.3875 23.2719 22.853 22.2121 22.8993C21.1522 22.9457 20.1173 22.5691 19.3352 21.8524L13.4366 16.448C13.0455 16.0897 12.8128 15.5907 12.7896 15.0607C12.7665 14.5308 12.9548 14.0134 13.3131 13.6223C13.6714 13.2312 14.1705 12.9985 14.7004 12.9753C15.2303 12.9521 15.7477 13.1404 16.1388 13.4988L22.0374 18.9032" stroke="#3E3E3E" stroke-width="1.5" stroke-linecap="round" stroke-linejoin="round"/>
</g>
<defs>
<clipPath id="clip0_162_48213">
<rect width="24" height="24" fill="white" transform="translate(0.0454102 17.7412) rotate(-47.5032)"/>
</clipPath>
</defs>
</svg>
