<svg width="32" height="32" viewBox="0 0 32 32" fill="none" xmlns="http://www.w3.org/2000/svg">
<path d="M17.264 9.74403L9.89334 17.1134C9.24126 17.7656 8.875 18.6502 8.87512 19.5725C8.87525 20.4948 9.24175 21.3793 9.89401 22.0314C10.5463 22.6834 11.4308 23.0497 12.3531 23.0496C13.2754 23.0495 14.1599 22.683 14.812 22.0307L22.788 14.0547C23.3548 13.4909 23.8046 12.8207 24.1115 12.0825C24.4185 11.3444 24.5765 10.5528 24.5765 9.75336C24.5765 8.95392 24.4185 8.16237 24.1115 7.4242C23.8046 6.68602 23.3548 6.01579 22.788 5.45203C21.6408 4.33984 20.1012 3.72511 18.5035 3.74134C16.9058 3.75757 15.379 4.40344 14.2547 5.5387L6.20934 13.4294C4.63487 15.0698 3.76613 17.262 3.78952 19.5357C3.81291 21.8093 4.72656 23.9832 6.33444 25.5909C7.94232 27.1986 10.1163 28.112 12.39 28.1352C14.6636 28.1583 16.8557 27.2893 18.496 25.7147L28.332 15.9654" stroke="#3E3E3E" stroke-opacity="0.8" stroke-width="1.5" stroke-linecap="round" stroke-linejoin="round"/>
</svg>
