<svg width="31" height="31" viewBox="0 0 31 31" fill="none" xmlns="http://www.w3.org/2000/svg">
<path d="M26.0683 20.0581L24.6858 17.7507C24.1908 16.9257 23.9308 15.9818 23.9308 15.0206V11.7369C23.9308 7.09188 20.1483 3.31189 15.4996 3.31189C10.8508 3.31189 7.0683 7.09063 7.0683 11.7369V15.0206C7.0683 15.9818 6.80705 16.9257 6.3133 17.7507L4.93081 20.0581C4.44956 20.8594 4.43831 21.8243 4.89831 22.6368C5.35956 23.4518 6.1933 23.9381 7.12954 23.9381H12.1046C12.0946 24.0431 12.0633 24.1444 12.0633 24.2506C12.0633 26.1469 13.6046 27.6881 15.5008 27.6881C17.3971 27.6881 18.9383 26.1469 18.9383 24.2506C18.9383 24.1444 18.907 24.0431 18.897 23.9381H23.8721C24.8083 23.9381 25.6433 23.4518 26.1033 22.6381C26.562 21.8243 26.5495 20.8594 26.0683 20.0581ZM17.0608 24.2506C17.0608 25.1119 16.3596 25.8131 15.4983 25.8131C14.6371 25.8131 13.9358 25.1119 13.9358 24.2506C13.9358 24.1444 13.9558 24.0406 13.9771 23.9381H17.0195C17.0408 24.0406 17.0608 24.1444 17.0608 24.2506ZM24.4696 21.7131C24.4096 21.8181 24.2333 22.0619 23.8696 22.0619H7.12705C6.76455 22.0619 6.58705 21.8181 6.52705 21.7131C6.4683 21.6081 6.34956 21.3318 6.53581 21.0218L7.91831 18.7144C8.58831 17.5982 8.9408 16.3206 8.9408 15.0206V11.7369C8.9408 8.12563 11.882 5.18689 15.497 5.18689C19.112 5.18689 22.0533 8.12563 22.0533 11.7369V15.0206C22.0533 16.3206 22.407 17.5982 23.0758 18.7144L24.4583 21.0218C24.6458 21.3318 24.5283 21.6081 24.4696 21.7131Z" fill="#3E3E3E" fill-opacity="0.8"/>
</svg>
