<svg width="24" height="24" viewBox="0 0 24 24" fill="none" xmlns="http://www.w3.org/2000/svg">
<path d="M7.87695 18.25V5.75H12.075C13.0303 5.75 13.8733 6.05133 14.604 6.654C15.3346 7.25667 15.7 8.04067 15.7 9.006C15.7 9.65067 15.5306 10.215 15.192 10.699C14.8533 11.183 14.4343 11.538 13.935 11.764C14.5436 11.934 15.0603 12.2917 15.485 12.837C15.9096 13.3823 16.1223 14.039 16.123 14.807C16.123 15.8803 15.7223 16.7227 14.921 17.334C14.1196 17.9447 13.2376 18.25 12.275 18.25H7.87695ZM9.15195 17.066H12.214C12.988 17.066 13.613 16.8327 14.089 16.366C14.5656 15.9 14.804 15.3577 14.804 14.739C14.804 14.119 14.566 13.576 14.09 13.11C13.6133 12.6447 12.982 12.412 12.196 12.412H9.15195V17.066ZM9.15195 11.25H12.016C12.6806 11.25 13.244 11.0443 13.706 10.633C14.168 10.2217 14.3986 9.70633 14.398 9.087C14.398 8.45567 14.1633 7.938 13.694 7.534C13.2246 7.13067 12.669 6.929 12.027 6.929H9.15195V11.25Z" fill="#3E3E3E"/>
</svg>
