<svg width="10" height="14" viewBox="0 0 10 14" fill="none" xmlns="http://www.w3.org/2000/svg">
<path d="M0.876953 13.25V0.75H5.07495C6.03029 0.75 6.87329 1.05133 7.60395 1.654C8.33462 2.25667 8.69995 3.04067 8.69995 4.006C8.69995 4.65067 8.53062 5.215 8.19195 5.699C7.85329 6.183 7.43429 6.538 6.93495 6.764C7.54362 6.934 8.06029 7.29167 8.48495 7.837C8.90962 8.38233 9.12229 9.039 9.12295 9.807C9.12295 10.8803 8.72229 11.7227 7.92095 12.334C7.11962 12.9447 6.23762 13.25 5.27495 13.25H0.876953ZM2.15195 12.066H5.21395C5.98795 12.066 6.61295 11.8327 7.08895 11.366C7.56562 10.9 7.80395 10.3577 7.80395 9.739C7.80395 9.119 7.56595 8.576 7.08995 8.11C6.61329 7.64467 5.98195 7.412 5.19595 7.412H2.15195V12.066ZM2.15195 6.25H5.01595C5.68062 6.25 6.24395 6.04433 6.70595 5.633C7.16795 5.22167 7.39862 4.70633 7.39795 4.087C7.39795 3.45567 7.16329 2.938 6.69395 2.534C6.22462 2.13067 5.66895 1.929 5.02695 1.929H2.15195V6.25Z" fill="#3E3E3E"/>
</svg>
