<svg width="22" height="20" viewBox="0 0 22 20" fill="none" xmlns="http://www.w3.org/2000/svg">
<path d="M11 14C12.6569 14 14 12.6569 14 11C14 9.34315 12.6569 8 11 8C9.34315 8 8 9.34315 8 11C8 12.6569 9.34315 14 11 14Z" stroke="#3E3E3E" stroke-width="1.5"/>
<path d="M8.778 19H13.222C16.343 19 17.904 19 19.025 18.265C19.5088 17.9481 19.9254 17.539 20.251 17.061C21 15.961 21 14.428 21 11.364C21 8.29999 21 6.76699 20.251 5.66699C19.9254 5.18898 19.5088 4.77984 19.025 4.46299C18.305 3.98999 17.403 3.82099 16.022 3.76099C15.363 3.76099 14.796 3.27099 14.667 2.63599C14.5684 2.17085 14.3123 1.75402 13.9418 1.45594C13.5714 1.15785 13.1095 0.996794 12.634 0.999985H9.366C8.378 0.999985 7.527 1.68499 7.333 2.63599C7.204 3.27099 6.637 3.76099 5.978 3.76099C4.598 3.82099 3.696 3.99099 2.975 4.46299C2.49154 4.77995 2.07527 5.18907 1.75 5.66699C1 6.76699 1 8.29899 1 11.364C1 14.429 1 15.96 1.749 17.061C2.073 17.537 2.489 17.946 2.975 18.265C4.096 19 5.657 19 8.778 19Z" stroke="#3E3E3E" stroke-width="1.5"/>
<path d="M18 8H17" stroke="#3E3E3E" stroke-width="1.5" stroke-linecap="round"/>
</svg>
