<svg width="30" height="30" viewBox="0 0 30 30" fill="none" xmlns="http://www.w3.org/2000/svg">
<path d="M11.23 25.8288H7.1175C5.6025 25.8288 4.375 24.6013 4.375 23.0863V15.0188C4.37592 14.431 4.50242 13.8503 4.74603 13.3155C4.98963 12.7806 5.34472 12.304 5.7875 11.9175L13.2 5.46126C13.6991 5.02704 14.3384 4.78789 15 4.78789C15.6616 4.78789 16.3009 5.02704 16.8 5.46126L24.2125 11.9188C24.6551 12.3051 25.0101 12.7815 25.2537 13.3161C25.4973 13.8508 25.6239 14.4313 25.625 15.0188V23.0863C25.625 23.8134 25.3362 24.5108 24.8222 25.0251C24.3081 25.5393 23.6109 25.8284 22.8838 25.8288H19.1125V17.6025C19.1125 16.4675 18.1925 15.5463 17.0563 15.5463H13.2875C12.1513 15.5463 11.2313 16.4675 11.2313 17.6025L11.23 25.8288ZM11.23 25.8288H19.1138" stroke="#3E3E3E" stroke-opacity="0.8" stroke-width="1.5" stroke-linejoin="round"/>
</svg>
