<svg width="33" height="33" viewBox="0 0 33 33" fill="none" xmlns="http://www.w3.org/2000/svg">
<path d="M16.5 3.5C9.332 3.5 3.5 9.332 3.5 16.5C3.5 23.668 9.332 29.5 16.5 29.5C23.668 29.5 29.5 23.668 29.5 16.5C29.5 9.332 23.668 3.5 16.5 3.5ZM16.5 27.5C10.4347 27.5 5.5 22.5653 5.5 16.5C5.5 10.4347 10.4347 5.5 16.5 5.5C22.5653 5.5 27.5 10.4347 27.5 16.5C27.5 22.5653 22.5653 27.5 16.5 27.5ZM17.8333 11.1667C17.8333 11.9027 17.236 12.5 16.5 12.5C15.764 12.5 15.1667 11.9027 15.1667 11.1667C15.1667 10.4307 15.764 9.83333 16.5 9.83333C17.236 9.83333 17.8333 10.4307 17.8333 11.1667ZM17.5 16.5V21.8333C17.5 22.3853 17.052 22.8333 16.5 22.8333C15.948 22.8333 15.5 22.3853 15.5 21.8333V16.5C15.5 15.948 15.948 15.5 16.5 15.5C17.052 15.5 17.5 15.948 17.5 16.5Z" fill="#3E3E3E" fill-opacity="0.8"/>
</svg>
