<svg width="27" height="27" viewBox="0 0 27 27" fill="none" xmlns="http://www.w3.org/2000/svg">
<path d="M13.5 0.5C6.332 0.5 0.5 6.332 0.5 13.5C0.5 20.668 6.332 26.5 13.5 26.5C20.668 26.5 26.5 20.668 26.5 13.5C26.5 6.332 20.668 0.5 13.5 0.5ZM13.5 24.5C7.43467 24.5 2.5 19.5653 2.5 13.5C2.5 7.43467 7.43467 2.5 13.5 2.5C19.5653 2.5 24.5 7.43467 24.5 13.5C24.5 19.5653 19.5653 24.5 13.5 24.5ZM14.8333 8.16667C14.8333 8.90267 14.236 9.5 13.5 9.5C12.764 9.5 12.1667 8.90267 12.1667 8.16667C12.1667 7.43067 12.764 6.83333 13.5 6.83333C14.236 6.83333 14.8333 7.43067 14.8333 8.16667ZM14.5 13.5V18.8333C14.5 19.3853 14.052 19.8333 13.5 19.8333C12.948 19.8333 12.5 19.3853 12.5 18.8333V13.5C12.5 12.948 12.948 12.5 13.5 12.5C14.052 12.5 14.5 12.948 14.5 13.5Z" fill="#3E3E3E" fill-opacity="0.8"/>
</svg>
