<svg width="6" height="17" viewBox="0 0 6 17" fill="none" xmlns="http://www.w3.org/2000/svg">
<path d="M3.96 2.722C3.68133 2.722 3.454 2.64133 3.278 2.48C3.102 2.304 3.014 2.07667 3.014 1.798C3.014 1.41667 3.146 1.10133 3.41 0.851999C3.674 0.587999 3.98933 0.455999 4.356 0.455999C4.63467 0.455999 4.85467 0.536666 5.016 0.697999C5.192 0.859333 5.28 1.072 5.28 1.336C5.28 1.71733 5.148 2.04733 4.884 2.326C4.62 2.59 4.312 2.722 3.96 2.722ZM4.312 4.988L2.2 17H0.66L2.772 4.988H4.312Z" fill="#3E3E3E"/>
</svg>
