<svg width="238" height="75" viewBox="0 0 238 75" fill="none" xmlns="http://www.w3.org/2000/svg">
<path d="M20.02 20.68C23.7 20.68 26.6067 21.56 28.74 23.32C30.9267 25.0267 32.02 27.5067 32.02 30.76C32.02 32.8933 31.5133 34.92 30.5 36.84C29.54 38.7067 28.26 40.52 26.66 42.28C25.06 43.9867 23.3533 45.6667 21.54 47.32C19.7267 48.92 17.9667 50.52 16.26 52.12C14.5533 53.6667 13.1133 55.24 11.94 56.84H28.18C30.3667 56.84 31.7533 56.5467 32.34 55.96C32.9267 55.32 33.3267 54.2533 33.54 52.76H34.9C34.9 55.5867 34.9267 57.7733 34.98 59.32C35.0333 60.8133 35.1133 62.1733 35.22 63.4C34.74 63.2933 33.86 63.2133 32.58 63.16C31.3 63.1067 29.8333 63.0533 28.18 63C26.5267 63 24.9 63 23.3 63H4.58V61.64C6.18 59.88 8.1 58.0133 10.34 56.04C12.58 54.0133 14.74 51.8267 16.82 49.48C18.9533 47.08 20.7133 44.4933 22.1 41.72C23.54 38.8933 24.26 35.8267 24.26 32.52C24.26 29.48 23.54 27.2933 22.1 25.96C20.7133 24.5733 18.7667 23.88 16.26 23.88C14.1267 23.88 12.1533 24.52 10.34 25.8C8.52667 27.0267 6.92667 28.8933 5.54 31.4L4.26 30.68C5.06 28.9733 6.12667 27.3733 7.46 25.88C8.84667 24.3333 10.5533 23.08 12.58 22.12C14.66 21.16 17.14 20.68 20.02 20.68ZM47.9013 53.88C49.0746 53.88 50.0346 54.12 50.7813 54.6C51.5279 55.08 52.1413 55.6933 52.6213 56.44C53.2079 57.2933 53.5813 58.2267 53.7413 59.24C53.9013 60.2533 53.9813 61.08 53.9813 61.72C53.9813 64.3333 53.3146 66.7067 51.9813 68.84C50.6479 70.9733 48.5679 72.7067 45.7413 74.04L45.0213 72.6C46.6746 71.9067 48.0879 70.8133 49.2613 69.32C50.4879 67.8267 51.1013 66.3067 51.1013 64.76C51.1013 64.12 51.0213 63.56 50.8613 63.08C50.0079 63.7733 49.0213 64.12 47.9013 64.12C46.5146 64.12 45.3146 63.6667 44.3013 62.76C43.2879 61.8533 42.7813 60.6 42.7813 59C42.7813 57.5067 43.2879 56.28 44.3013 55.32C45.3146 54.36 46.5146 53.88 47.9013 53.88ZM82.1206 20.68C85.9073 20.68 89.2406 21.56 92.1206 23.32C95.054 25.0267 97.3473 27.4533 99.0006 30.6C100.654 33.7467 101.481 37.4533 101.481 41.72C101.481 45.9867 100.627 49.8267 98.9206 53.24C97.214 56.6 94.8406 59.2667 91.8006 61.24C88.814 63.16 85.294 64.12 81.2406 64.12C77.5606 64.12 74.254 63.2667 71.3206 61.56C68.3873 59.8 66.0673 57.3467 64.3606 54.2C62.7073 51 61.8806 47.2667 61.8806 43C61.8806 38.7867 62.7073 35 64.3606 31.64C66.0673 28.28 68.4406 25.6133 71.4806 23.64C74.5206 21.6667 78.0673 20.68 82.1206 20.68ZM81.4006 22.12C77.9873 22.12 75.1606 23.9333 72.9206 27.56C70.734 31.1867 69.6406 36.2533 69.6406 42.76C69.6406 47.56 70.2006 51.4267 71.3206 54.36C72.4406 57.24 73.934 59.3467 75.8006 60.68C77.7206 62.0133 79.774 62.68 81.9606 62.68C85.4273 62.68 88.254 60.8667 90.4406 57.24C92.6273 53.56 93.7206 48.4667 93.7206 41.96C93.7206 37.16 93.1606 33.32 92.0406 30.44C90.9206 27.5067 89.4273 25.4 87.5606 24.12C85.694 22.7867 83.6406 22.12 81.4006 22.12ZM129.129 20.68C132.916 20.68 136.249 21.56 139.129 23.32C142.063 25.0267 144.356 27.4533 146.009 30.6C147.663 33.7467 148.489 37.4533 148.489 41.72C148.489 45.9867 147.636 49.8267 145.929 53.24C144.223 56.6 141.849 59.2667 138.809 61.24C135.823 63.16 132.303 64.12 128.249 64.12C124.569 64.12 121.263 63.2667 118.329 61.56C115.396 59.8 113.076 57.3467 111.369 54.2C109.716 51 108.889 47.2667 108.889 43C108.889 38.7867 109.716 35 111.369 31.64C113.076 28.28 115.449 25.6133 118.489 23.64C121.529 21.6667 125.076 20.68 129.129 20.68ZM128.409 22.12C124.996 22.12 122.169 23.9333 119.929 27.56C117.743 31.1867 116.649 36.2533 116.649 42.76C116.649 47.56 117.209 51.4267 118.329 54.36C119.449 57.24 120.943 59.3467 122.809 60.68C124.729 62.0133 126.783 62.68 128.969 62.68C132.436 62.68 135.263 60.8667 137.449 57.24C139.636 53.56 140.729 48.4667 140.729 41.96C140.729 37.16 140.169 33.32 139.049 30.44C137.929 27.5067 136.436 25.4 134.569 24.12C132.703 22.7867 130.649 22.12 128.409 22.12ZM176.138 20.68C179.925 20.68 183.258 21.56 186.138 23.32C189.071 25.0267 191.365 27.4533 193.018 30.6C194.671 33.7467 195.498 37.4533 195.498 41.72C195.498 45.9867 194.645 49.8267 192.938 53.24C191.231 56.6 188.858 59.2667 185.818 61.24C182.831 63.16 179.311 64.12 175.258 64.12C171.578 64.12 168.271 63.2667 165.338 61.56C162.405 59.8 160.085 57.3467 158.378 54.2C156.725 51 155.898 47.2667 155.898 43C155.898 38.7867 156.725 35 158.378 31.64C160.085 28.28 162.458 25.6133 165.498 23.64C168.538 21.6667 172.085 20.68 176.138 20.68ZM175.418 22.12C172.005 22.12 169.178 23.9333 166.938 27.56C164.751 31.1867 163.658 36.2533 163.658 42.76C163.658 47.56 164.218 51.4267 165.338 54.36C166.458 57.24 167.951 59.3467 169.818 60.68C171.738 62.0133 173.791 62.68 175.978 62.68C179.445 62.68 182.271 60.8667 184.458 57.24C186.645 53.56 187.738 48.4667 187.738 41.96C187.738 37.16 187.178 33.32 186.058 30.44C184.938 27.5067 183.445 25.4 181.578 24.12C179.711 22.7867 177.658 22.12 175.418 22.12Z" fill="#094C9F"/>
<path d="M220.833 44.6667H214.167C213.977 44.6667 213.819 44.6027 213.692 44.4747C213.565 44.3467 213.501 44.188 213.5 43.9987C213.499 43.8093 213.563 43.6511 213.692 43.524C213.821 43.3969 213.979 43.3333 214.167 43.3333H220.833V36.6667C220.833 36.4773 220.897 36.3191 221.025 36.192C221.153 36.0649 221.312 36.0009 221.501 36C221.691 35.9991 221.849 36.0631 221.976 36.192C222.103 36.3209 222.167 36.4791 222.167 36.6667V43.3333H228.833C229.023 43.3333 229.181 43.3973 229.308 43.5253C229.435 43.6533 229.499 43.812 229.5 44.0013C229.501 44.1907 229.437 44.3489 229.308 44.476C229.179 44.6031 229.021 44.6667 228.833 44.6667H222.167V51.3333C222.167 51.5227 222.103 51.6809 221.975 51.808C221.847 51.9351 221.688 51.9991 221.499 52C221.309 52.0009 221.151 51.9369 221.024 51.808C220.897 51.6791 220.833 51.5209 220.833 51.3333V44.6667Z" fill="#094C9F"/>
</svg>
