<svg width="238" height="76" viewBox="0 0 238 76" fill="none" xmlns="http://www.w3.org/2000/svg">
<path d="M76.66 20.68C78.9 20.68 80.8733 21.0533 82.58 21.8C84.34 22.4933 85.7 23.5333 86.66 24.92C87.6733 26.2533 88.18 27.88 88.18 29.8C88.18 31.88 87.5933 33.8 86.42 35.56C85.3 37.2667 83.8333 38.76 82.02 40.04C80.2067 41.2667 78.2867 42.2533 76.26 43C78.7667 43.0533 81.14 43.5333 83.38 44.44C85.62 45.2933 87.46 46.6 88.9 48.36C90.34 50.12 91.06 52.3867 91.06 55.16C91.06 57.6133 90.4733 59.88 89.3 61.96C88.18 63.9867 86.6067 65.8 84.58 67.4C82.6067 69.0533 80.34 70.44 77.78 71.56C75.22 72.7333 72.5267 73.6133 69.7 74.2C66.9267 74.7867 64.18 75.08 61.46 75.08V73.64C64.18 73.5867 66.8467 73.1333 69.46 72.28C72.0733 71.48 74.42 70.3067 76.5 68.76C78.6333 67.2133 80.3133 65.2933 81.54 63C82.82 60.7067 83.46 58.0933 83.46 55.16C83.46 52.0133 82.6867 49.4267 81.14 47.4C79.6467 45.32 77.5933 44.1733 74.98 43.96C74.18 44.28 73.46 44.5733 72.82 44.84C72.2333 45.0533 71.7 45.16 71.22 45.16C70.7933 45.16 70.4733 45.08 70.26 44.92C70.0467 44.7067 69.94 44.44 69.94 44.12C69.94 43.64 70.1533 43.2667 70.58 43C71.0067 42.7333 71.4867 42.6 72.02 42.6C72.4467 42.6 72.8733 42.6533 73.3 42.76C73.78 42.8133 74.2867 42.8667 74.82 42.92C77.0067 41.2667 78.58 39.4533 79.54 37.48C80.5 35.4533 80.98 33.4267 80.98 31.4C80.98 28.8933 80.34 27.08 79.06 25.96C77.8333 24.7867 76.1533 24.2 74.02 24.2C71.8333 24.2 69.8067 24.7867 67.94 25.96C66.1267 27.1333 64.6067 28.92 63.38 31.32L62.02 30.68C62.82 28.92 63.86 27.2933 65.14 25.8C66.42 24.2533 67.9933 23.0267 69.86 22.12C71.78 21.16 74.0467 20.68 76.66 20.68ZM118.034 20.68C121.82 20.68 125.154 21.56 128.034 23.32C130.967 25.0267 133.26 27.4533 134.914 30.6C136.567 33.7467 137.394 37.4533 137.394 41.72C137.394 45.9867 136.54 49.8267 134.834 53.24C133.127 56.6 130.754 59.2667 127.714 61.24C124.727 63.16 121.207 64.12 117.154 64.12C113.474 64.12 110.167 63.2667 107.234 61.56C104.3 59.8 101.98 57.3467 100.274 54.2C98.6204 51 97.7938 47.2667 97.7938 43C97.7938 38.7867 98.6204 35 100.274 31.64C101.98 28.28 104.354 25.6133 107.394 23.64C110.434 21.6667 113.98 20.68 118.034 20.68ZM117.314 22.12C113.9 22.12 111.074 23.9333 108.834 27.56C106.647 31.1867 105.554 36.2533 105.554 42.76C105.554 47.56 106.114 51.4267 107.234 54.36C108.354 57.24 109.847 59.3467 111.714 60.68C113.634 62.0133 115.687 62.68 117.874 62.68C121.34 62.68 124.167 60.8667 126.354 57.24C128.54 53.56 129.634 48.4667 129.634 41.96C129.634 37.16 129.074 33.32 127.954 30.44C126.834 27.5067 125.34 25.4 123.474 24.12C121.607 22.7867 119.554 22.12 117.314 22.12Z" fill="#094C9F"/>
<path d="M162.833 44.6667H156.167C155.977 44.6667 155.819 44.6027 155.692 44.4747C155.565 44.3467 155.501 44.188 155.5 43.9987C155.499 43.8093 155.563 43.6511 155.692 43.524C155.821 43.3969 155.979 43.3333 156.167 43.3333H162.833V36.6667C162.833 36.4773 162.897 36.3191 163.025 36.192C163.153 36.0649 163.312 36.0009 163.501 36C163.691 35.9991 163.849 36.0631 163.976 36.192C164.103 36.3209 164.167 36.4791 164.167 36.6667V43.3333H170.833C171.023 43.3333 171.181 43.3973 171.308 43.5253C171.435 43.6533 171.499 43.812 171.5 44.0013C171.501 44.1907 171.437 44.3489 171.308 44.476C171.179 44.6031 171.021 44.6667 170.833 44.6667H164.167V51.3333C164.167 51.5227 164.103 51.6809 163.975 51.808C163.847 51.9351 163.688 51.9991 163.499 52C163.309 52.0009 163.151 51.9369 163.024 51.808C162.897 51.6791 162.833 51.5209 162.833 51.3333V44.6667Z" fill="#094C9F"/>
</svg>
