<svg width="20" height="16" viewBox="0 0 20 16" fill="none" xmlns="http://www.w3.org/2000/svg">
<path d="M19.707 8.70731L12.707 15.7073C12.512 15.9023 12.256 16.0003 12 16.0003C11.744 16.0003 11.488 15.9023 11.293 15.7073C10.902 15.3163 10.902 14.6842 11.293 14.2933L16.586 9.00028H1C0.447 9.00028 0 8.55328 0 8.00028C0 7.44728 0.447 7.00028 1 7.00028H16.586L11.293 1.70731C10.902 1.31631 10.902 0.68425 11.293 0.29325C11.684 -0.09775 12.316 -0.09775 12.707 0.29325L19.707 7.29325C20.098 7.68425 20.098 8.31631 19.707 8.70731Z" fill="#FEFEFE"/>
</svg>
