<svg width="40" height="40" viewBox="0 0 40 40" fill="none" xmlns="http://www.w3.org/2000/svg">
<g clip-path="url(#clip0_162_4137)">
<g clip-path="url(#clip1_162_4137)">
<path fill-rule="evenodd" clip-rule="evenodd" d="M3.38616 20.0001C3.38566 19.777 3.34185 19.5542 3.25474 19.3443L2.05234 16.433C1.79832 15.8199 1.6671 15.1617 1.66699 14.4981C1.66689 13.834 1.79762 13.1765 2.05172 12.563C2.30583 11.9495 2.67832 11.3921 3.14793 10.9227C3.61741 10.4533 4.17474 10.081 4.78811 9.82713L7.69466 8.62315C8.11559 8.4491 8.45133 8.11485 8.62657 7.6944L9.83082 4.78698C10.3438 3.5485 11.3277 2.56451 12.5662 2.05151C13.8047 1.5385 15.1962 1.5385 16.4347 2.05151L19.3399 3.25492C19.7614 3.42897 20.2354 3.42874 20.6566 3.25393L20.6599 3.25256L23.5677 2.05328C24.8057 1.54096 26.1976 1.5408 27.4354 2.05357C28.6737 2.56648 29.6575 3.55018 30.1705 4.78834L31.3459 7.62595C31.3563 7.64834 31.3663 7.67107 31.3758 7.6941C31.5501 8.11549 31.8844 8.45048 32.3053 8.62558L35.2135 9.83025C36.452 10.3433 37.436 11.3272 37.9489 12.5657C38.4619 13.8042 38.4619 15.1957 37.9489 16.4342L36.745 19.3409C36.6576 19.552 36.6138 19.7769 36.6138 20.0006C36.6138 20.2243 36.6576 20.4482 36.745 20.6593L37.9489 23.5659C38.4619 24.8044 38.4619 26.196 37.9489 27.4344C37.436 28.6729 36.452 29.6569 35.2135 30.1699L32.3053 31.3746C31.8844 31.5497 31.5501 31.8847 31.3758 32.3061C31.3663 32.3291 31.3563 32.3518 31.3459 32.3742L30.1705 35.2118C29.6575 36.45 28.6737 37.4337 27.4354 37.9466C26.1976 38.4594 24.8057 38.4592 23.5677 37.9469L20.6599 36.7476L20.6566 36.7462C20.2354 36.5714 19.7614 36.5712 19.3399 36.7452L16.4347 37.9487C15.1962 38.4617 13.8047 38.4617 12.5662 37.9487C11.3277 37.4356 10.3438 36.4517 9.83082 35.2132L8.62657 32.3058C8.45133 31.8853 8.11559 31.5511 7.69466 31.377L4.78811 30.173C4.17474 29.9191 3.61741 29.5468 3.14793 29.0775C2.67832 28.608 2.30583 28.0506 2.05172 27.4371C1.79762 26.8237 1.66689 26.1661 1.66699 25.5021C1.6671 24.8384 1.79832 24.1803 2.05234 23.5672L3.25474 20.6559C3.34185 20.4459 3.38566 20.2231 3.38616 20.0001ZM27.0122 17.0119C27.663 16.3611 27.663 15.3058 27.0122 14.6549C26.3613 14.004 25.306 14.004 24.6551 14.6549L18.3337 20.9764L16.1788 18.8216C15.528 18.1707 14.4727 18.1707 13.8218 18.8216C13.1709 19.4724 13.1709 20.5277 13.8218 21.1786L17.1551 24.5119C17.806 25.1628 18.8613 25.1628 19.5122 24.5119L27.0122 17.0119Z" fill="#094C9F"/>
</g>
</g>
<defs>
<clipPath id="clip0_162_4137">
<rect width="40" height="40" fill="white"/>
</clipPath>
<clipPath id="clip1_162_4137">
<rect width="40" height="40" fill="white"/>
</clipPath>
</defs>
</svg>
