<svg width="40" height="40" viewBox="0 0 40 40" fill="none" xmlns="http://www.w3.org/2000/svg">
<g clip-path="url(#clip0_162_4172)">
<g clip-path="url(#clip1_162_4172)">
<path fill-rule="evenodd" clip-rule="evenodd" d="M37.8457 25.4881C38.4966 26.139 38.4966 27.1943 37.8457 27.8452L31.179 34.5118C30.5282 35.1627 29.4729 35.1627 28.822 34.5118L25.4887 31.1785C24.8378 30.5276 24.8378 29.4723 25.4887 28.8215C26.1396 28.1706 27.1948 28.1706 27.8457 28.8215L30.0005 30.9763L35.4887 25.4881C36.1396 24.8373 37.1948 24.8373 37.8457 25.4881Z" fill="#094C9F"/>
<path d="M8.60277 6.66675H31.3979C32.2765 6.66673 33.0344 6.6667 33.6587 6.71771C34.3176 6.77154 34.973 6.8904 35.6036 7.21172C36.5444 7.69109 37.3093 8.45599 37.7887 9.3968C38.11 10.0274 38.2289 10.6828 38.2827 11.3417C38.3337 11.966 38.3337 12.7239 38.3337 13.6025C38.3337 14.3744 37.7079 15.0001 36.9361 15.0001H3.06465C2.29274 15.0001 1.66699 14.3743 1.66699 13.6024C1.66697 12.7239 1.66695 11.9659 1.71795 11.3417C1.77178 10.6828 1.89064 10.0274 2.21197 9.3968C2.69133 8.45599 3.45624 7.69109 4.39705 7.21172C5.02768 6.8904 5.68304 6.77154 6.34195 6.7177C6.96621 6.6667 7.72424 6.66672 8.60277 6.66675Z" fill="#094C9F"/>
<path d="M4.33366 18.3335C3.40024 18.3335 2.93353 18.3335 2.57701 18.5152C2.26341 18.675 2.00844 18.9299 1.84865 19.2435C1.66699 19.6001 1.66699 20.0668 1.66699 21.0002V26.3978C1.66697 27.2763 1.66695 28.0343 1.71795 28.6586C1.77178 29.3175 1.89064 29.9728 2.21197 30.6035C2.69133 31.5443 3.45624 32.3092 4.39705 32.7886C5.02768 33.1099 5.68304 33.2287 6.34195 33.2826C6.96614 33.3336 7.72393 33.3335 8.60233 33.3335H19.9552C20.8729 33.3335 21.3318 33.3335 21.5217 33.2271C21.7487 33.0998 21.7922 33.0502 21.8885 32.8084C21.969 32.6062 21.8829 31.9582 21.7107 30.6622C21.5128 29.172 21.9864 27.6097 23.1315 26.4647C25.0162 24.5799 28.0313 24.5144 29.9946 26.2681L33.1315 23.1313C34.2977 21.965 35.8968 21.4954 37.4117 21.7223C37.8711 21.7911 38.3337 21.4647 38.3337 21.0002C38.3337 20.0668 38.3337 19.6001 38.152 19.2435C37.9922 18.9299 37.7373 18.675 37.4236 18.5152C37.0671 18.3335 36.6004 18.3335 35.667 18.3335H4.33366Z" fill="#094C9F"/>
</g>
</g>
<defs>
<clipPath id="clip0_162_4172">
<rect width="40" height="40" fill="white"/>
</clipPath>
<clipPath id="clip1_162_4172">
<rect width="40" height="40" fill="white"/>
</clipPath>
</defs>
</svg>
