<svg width="48" height="48" viewBox="0 0 48 48" fill="none" xmlns="http://www.w3.org/2000/svg">
<path d="M6.84921 18.66C7.97188 14.9693 10.0959 11.936 13.2212 9.56C16.3465 7.18401 19.9392 5.99734 23.9992 6C26.2872 6 28.4392 6.39334 30.4552 7.18C32.4712 7.96667 34.2819 9.068 35.8872 10.484C35.7032 10.8893 35.5525 11.2593 35.4352 11.594C35.3192 11.9287 35.2239 12.2473 35.1492 12.55C33.6825 11.15 31.9992 10.042 30.0992 9.226C28.1992 8.41 26.1659 8.00134 23.9992 8C20.6325 8 17.6159 8.942 14.9492 10.826C12.2825 12.71 10.3492 15.118 9.14921 18.05C8.73588 18.042 8.33521 18.0867 7.94721 18.184C7.55921 18.2813 7.19321 18.4407 6.84921 18.662M23.9992 42C19.9379 42 16.3445 40.8193 13.2192 38.458C10.0939 36.0967 7.97054 33.07 6.84921 29.378C7.18521 29.598 7.54721 29.758 7.93521 29.858C8.32321 29.958 8.72788 30.0053 9.14921 30C10.3492 32.9333 12.2825 35.3333 14.9492 37.2C17.6159 39.0667 20.6325 40 23.9992 40C28.4325 40 32.2079 38.442 35.3252 35.326C38.4425 32.21 40.0005 28.4347 39.9992 24C39.9992 23.4333 39.9739 22.8667 39.9232 22.3C39.8725 21.7333 39.7812 21.1667 39.6492 20.6C39.9385 20.6827 40.2172 20.7573 40.4852 20.824C40.7532 20.8907 41.0399 20.9367 41.3452 20.962C41.4145 20.962 41.4839 20.958 41.5532 20.95C41.6225 20.942 41.6879 20.9307 41.7492 20.916C41.8425 21.4227 41.9072 21.928 41.9432 22.432C41.9805 22.936 41.9992 23.4587 41.9992 24C41.9992 26.4853 41.5259 28.8227 40.5792 31.012C39.6312 33.2013 38.3472 35.106 36.7272 36.726C35.1059 38.3473 33.2005 39.6313 31.0112 40.578C28.8219 41.526 26.4845 42 23.9992 42ZM16.7992 22.354L20.1152 19L16.7492 15.634L15.5332 16.85L17.6832 18.95L15.5332 21.1L16.7992 22.354ZM41.9992 17.384C41.0792 17.384 40.2852 17.0507 39.6172 16.384C38.9492 15.7147 38.6152 14.92 38.6152 14C38.6152 13.2027 38.8199 12.3727 39.2292 11.51C39.6399 10.6473 40.5632 9.16934 41.9992 7.076C43.4352 9.16934 44.3579 10.6473 44.7672 11.51C45.1779 12.3727 45.3832 13.2027 45.3832 14C45.3832 14.92 45.0499 15.714 44.3832 16.382C43.7139 17.05 42.9192 17.384 41.9992 17.384ZM31.2492 22.364L32.5152 21.1L30.3652 18.95L32.4652 16.85L31.2492 15.634L27.8832 19L31.2492 22.364ZM23.9992 27C23.0819 27 22.1699 27.132 21.2632 27.396C20.3565 27.66 19.4979 28.0653 18.6872 28.612L11.3832 24.346C11.3832 23.8633 11.2885 23.402 11.0992 22.962C10.9099 22.522 10.6072 22.1807 10.1912 21.938C9.61121 21.6153 9.00654 21.5367 8.37721 21.702C7.74788 21.8673 7.26788 22.236 6.93721 22.808C6.61454 23.388 6.53588 23.9927 6.70121 24.622C6.86654 25.2513 7.23521 25.7313 7.80721 26.062C8.22188 26.302 8.67054 26.3967 9.15321 26.346C9.63588 26.2953 10.0845 26.1487 10.4992 25.906L17.2192 29.782C16.8059 30.194 16.4192 30.642 16.0592 31.126C15.6992 31.61 15.3819 32.1573 15.1072 32.768H17.0992C17.7992 31.568 18.7492 30.6013 19.9492 29.868C21.1492 29.1347 22.4992 28.768 23.9992 28.768C25.4992 28.768 26.8492 29.1347 28.0492 29.868C29.2492 30.6013 30.1992 31.568 30.8992 32.768H32.8912C31.9632 30.8307 30.6932 29.3847 29.0812 28.43C27.4705 27.4767 25.7765 27 23.9992 27Z" fill="#858585"/>
</svg>
