<svg width="32" height="32" viewBox="0 0 32 32" fill="none" xmlns="http://www.w3.org/2000/svg">
<path d="M22.6668 11.6667C22.5354 11.6661 22.4052 11.6917 22.2839 11.7421C22.1625 11.7924 22.0524 11.8665 21.9601 11.96L16.0001 17.92L10.0401 12C9.85217 11.8782 9.62876 11.8229 9.40569 11.8432C9.18262 11.8634 8.9728 11.958 8.80987 12.1117C8.64695 12.2654 8.54034 12.4694 8.50714 12.6909C8.47394 12.9124 8.51607 13.1386 8.62678 13.3334L15.2934 20C15.4809 20.1873 15.7351 20.2925 16.0001 20.2925C16.2651 20.2925 16.5193 20.1873 16.7068 20L23.3734 13.3334C23.5607 13.1459 23.6659 12.8917 23.6659 12.6267C23.6659 12.3617 23.5607 12.1075 23.3734 11.92C23.1805 11.7458 22.9265 11.6547 22.6668 11.6667Z" fill="#3E3E3E"/>
</svg>
