<svg width="10" height="6" viewBox="0 0 10 6" fill="none" xmlns="http://www.w3.org/2000/svg">
<path d="M9.16674 0.292477C9.08462 0.292089 9.00325 0.308106 8.92741 0.339588C8.85157 0.37107 8.78278 0.417384 8.72507 0.47581L5.00007 4.20081L1.27507 0.50081C1.15761 0.424651 1.01798 0.390133 0.878556 0.40279C0.739136 0.415446 0.608002 0.474543 0.506172 0.570609C0.404342 0.666676 0.337712 0.794147 0.316963 0.932594C0.296213 1.07104 0.322545 1.21245 0.391738 1.33414L4.55841 5.50081C4.67559 5.61785 4.83445 5.68359 5.00007 5.68359C5.1657 5.68359 5.32455 5.61785 5.44174 5.50081L9.60841 1.33414C9.72545 1.21696 9.79119 1.0581 9.79119 0.892477C9.79119 0.726851 9.72545 0.567997 9.60841 0.450809C9.4878 0.341899 9.32907 0.284998 9.16674 0.292477Z" fill="#3E3E3E"/>
</svg>
