<svg width="16" height="16" viewBox="0 0 16 16" fill="none" xmlns="http://www.w3.org/2000/svg">
<path d="M6.14293 2.57199C6.10504 2.57199 6.0687 2.58704 6.04191 2.61383C6.01512 2.64062 6.00007 2.67696 6.00007 2.71484V5.57313C6.00007 5.68679 5.95492 5.7958 5.87454 5.87617C5.79417 5.95655 5.68516 6.0017 5.5715 6.0017H2.71436C2.67647 6.0017 2.64013 6.01675 2.61334 6.04354C2.58655 6.07033 2.5715 6.10667 2.5715 6.14456V9.85884C2.5715 9.9377 2.6355 10.0017 2.71436 10.0017H5.5715C5.68516 10.0017 5.79417 10.0469 5.87454 10.1272C5.95492 10.2076 6.00007 10.3166 6.00007 10.4303V13.288C6.00007 13.3668 6.06407 13.4308 6.14293 13.4308H9.85721C9.8951 13.4308 9.93144 13.4158 9.95823 13.389C9.98502 13.3622 10.0001 13.3259 10.0001 13.288V10.4303C10.0001 10.3166 10.0452 10.2076 10.1256 10.1272C10.206 10.0469 10.315 10.0017 10.4286 10.0017H13.2858C13.3237 10.0017 13.36 9.98665 13.3868 9.95986C13.4136 9.93307 13.4286 9.89673 13.4286 9.85884V6.14456C13.4286 6.10667 13.4136 6.07033 13.3868 6.04354C13.36 6.01675 13.3237 6.0017 13.2858 6.0017H10.4286C10.315 6.0017 10.206 5.95655 10.1256 5.87617C10.0452 5.7958 10.0001 5.68679 10.0001 5.57313V2.71484C10.0001 2.67696 9.98502 2.64062 9.95823 2.61383C9.93144 2.58704 9.8951 2.57199 9.85721 2.57199H6.14293ZM5.14293 2.71484C5.14293 2.16284 5.59093 1.71484 6.14293 1.71484H9.85721C10.4092 1.71484 10.8572 2.16284 10.8572 2.71484V5.14456H13.2858C13.8378 5.14456 14.2858 5.59199 14.2858 6.14456V9.85884C14.2858 10.1241 14.1804 10.3784 13.9929 10.566C13.8054 10.7535 13.551 10.8588 13.2858 10.8588H10.8572V13.288C10.8572 13.5532 10.7519 13.8076 10.5643 13.9951C10.3768 14.1826 10.1224 14.288 9.85721 14.288H6.14293C5.87771 14.288 5.62336 14.1826 5.43582 13.9951C5.24828 13.8076 5.14293 13.5532 5.14293 13.288V10.8588H2.71436C2.44914 10.8588 2.19479 10.7535 2.00725 10.566C1.81971 10.3784 1.71436 10.1241 1.71436 9.85884V6.14456C1.71436 5.59142 2.16236 5.14456 2.71436 5.14456H5.14293V2.71484Z" fill="black"/>
</svg>
