<svg width="16" height="16" viewBox="0 0 16 16" fill="none" xmlns="http://www.w3.org/2000/svg">
<path d="M5.86663 7.46641C5.15939 7.46641 4.48111 7.18545 3.98102 6.68536C3.48092 6.18526 3.19997 5.50698 3.19997 4.79974V2.66641C3.19997 2.52496 3.25616 2.3893 3.35618 2.28928C3.4562 2.18926 3.59185 2.13307 3.7333 2.13307H4.26663C4.40808 2.13307 4.54374 2.07688 4.64376 1.97686C4.74378 1.87684 4.79997 1.74119 4.79997 1.59974C4.79997 1.45829 4.74378 1.32264 4.64376 1.22262C4.54374 1.1226 4.40808 1.06641 4.26663 1.06641H3.7333C3.30895 1.06641 2.90199 1.23498 2.60193 1.53504C2.30187 1.83509 2.1333 2.24206 2.1333 2.66641V4.79974C2.13399 5.40227 2.28091 5.99562 2.56146 6.52885C2.84201 7.06208 3.24779 7.51924 3.74397 7.86107C4.22116 8.28095 4.60808 8.79339 4.88128 9.36729C5.15449 9.9412 5.30827 10.5646 5.3333 11.1997C5.3333 12.1899 5.72663 13.1395 6.42677 13.8396C7.1269 14.5397 8.07649 14.9331 9.06663 14.9331C10.0568 14.9331 11.0064 14.5397 11.7065 13.8396C12.4066 13.1395 12.8 12.1899 12.8 11.1997V10.5917C13.3027 10.4619 13.7409 10.1532 14.0323 9.72347C14.3237 9.29372 14.4484 8.77244 14.383 8.25734C14.3175 7.74224 14.0665 7.26868 13.6769 6.92543C13.2873 6.58219 12.7859 6.39282 12.2666 6.39282C11.7474 6.39282 11.246 6.58219 10.8564 6.92543C10.4668 7.26868 10.2157 7.74224 10.1503 8.25734C10.0849 8.77244 10.2096 9.29372 10.501 9.72347C10.7924 10.1532 11.2305 10.4619 11.7333 10.5917V11.1997C11.7333 11.907 11.4523 12.5853 10.9523 13.0854C10.4522 13.5855 9.77388 13.8664 9.06663 13.8664C8.35939 13.8664 7.68111 13.5855 7.18102 13.0854C6.68092 12.5853 6.39997 11.907 6.39997 11.1997C6.42635 10.5638 6.5818 9.93993 6.85685 9.36598C7.13191 8.79202 7.52083 8.28001 7.99997 7.86107C8.49417 7.51805 8.89788 7.06037 9.17653 6.52722C9.45518 5.99406 9.60048 5.40132 9.59997 4.79974V2.66641C9.59997 2.24206 9.4314 1.83509 9.13134 1.53504C8.83128 1.23498 8.42431 1.06641 7.99997 1.06641H7.46663C7.32519 1.06641 7.18953 1.1226 7.08951 1.22262C6.98949 1.32264 6.9333 1.45829 6.9333 1.59974C6.9333 1.74119 6.98949 1.87684 7.08951 1.97686C7.18953 2.07688 7.32519 2.13307 7.46663 2.13307H7.99997C8.14142 2.13307 8.27707 2.18926 8.37709 2.28928C8.47711 2.3893 8.5333 2.52496 8.5333 2.66641V4.79974C8.5333 5.14993 8.46433 5.49669 8.33031 5.82023C8.1963 6.14376 7.99988 6.43774 7.75225 6.68536C7.50463 6.93298 7.21066 7.12941 6.88712 7.26342C6.56359 7.39743 6.21683 7.46641 5.86663 7.46641ZM12.2666 9.59974C11.9837 9.59974 11.7124 9.48736 11.5124 9.28732C11.3123 9.08728 11.2 8.81597 11.2 8.53307C11.2 8.25018 11.3123 7.97887 11.5124 7.77883C11.7124 7.57879 11.9837 7.46641 12.2666 7.46641C12.5495 7.46641 12.8208 7.57879 13.0209 7.77883C13.2209 7.97887 13.3333 8.25018 13.3333 8.53307C13.3333 8.81597 13.2209 9.08728 13.0209 9.28732C12.8208 9.48736 12.5495 9.59974 12.2666 9.59974Z" fill="black"/>
</svg>
