<svg width="17" height="21" viewBox="0 0 17 21" fill="none" xmlns="http://www.w3.org/2000/svg">
<g clip-path="url(#clip0_156_5669)">
<path fill-rule="evenodd" clip-rule="evenodd" d="M2.16423 12.0013C2.16403 11.9121 2.14651 11.8229 2.11167 11.739L1.6307 10.5744C1.52909 10.3292 1.47661 10.066 1.47656 9.8005C1.47652 9.53489 1.52881 9.27187 1.63045 9.02648C1.7321 8.78108 1.8811 8.55812 2.06894 8.37033C2.25673 8.18259 2.47967 8.03369 2.72501 7.93212L3.88763 7.45053C4.05601 7.38091 4.1903 7.24721 4.2604 7.07903L4.7421 5.91606C4.94729 5.42067 5.34086 5.02707 5.83625 4.82187C6.33164 4.61667 6.88825 4.61667 7.38364 4.82187L8.54572 5.30324C8.71435 5.37286 8.90391 5.37277 9.07242 5.30284L9.07374 5.30229L10.2368 4.82258C10.7321 4.61765 11.2888 4.61759 11.7839 4.8227C12.2792 5.02786 12.6727 5.42134 12.8779 5.9166L13.3481 7.05165C13.3523 7.06061 13.3563 7.0697 13.3601 7.07891C13.4298 7.24746 13.5635 7.38146 13.7319 7.4515L14.8951 7.93337C15.3905 8.13857 15.7841 8.53217 15.9893 9.02756C16.1945 9.52295 16.1945 10.0796 15.9893 10.5749L15.5077 11.7376C15.4727 11.822 15.4553 11.912 15.4553 12.0015C15.4553 12.091 15.4727 12.1805 15.5077 12.265L15.9893 13.4276C16.1945 13.923 16.1945 14.4796 15.9893 14.975C15.7841 15.4704 15.3905 15.864 14.8951 16.0692L13.7319 16.5511C13.5635 16.6211 13.4298 16.7551 13.3601 16.9237C13.3563 16.9329 13.3523 16.942 13.3481 16.9509L12.8779 18.086C12.6727 18.5812 12.2792 18.9747 11.7839 19.1799C11.2888 19.385 10.7321 19.3849 10.2368 19.18L9.07374 18.7003L9.07242 18.6997C8.90391 18.6298 8.71435 18.6297 8.54572 18.6993L7.38364 19.1807C6.88825 19.3859 6.33164 19.3859 5.83625 19.1807C5.34086 18.9755 4.94729 18.5819 4.7421 18.0865L4.2604 16.9236C4.1903 16.7554 4.05601 16.6217 3.88763 16.5521L2.72501 16.0705C2.47967 15.9689 2.25673 15.82 2.06894 15.6323C1.8811 15.4445 1.7321 15.2215 1.63045 14.9761C1.52881 14.7307 1.47652 14.4677 1.47656 14.2021C1.47661 13.9366 1.52909 13.6734 1.6307 13.4281L2.11167 12.2636C2.14651 12.1796 2.16403 12.0905 2.16423 12.0013ZM11.6146 10.806C11.8749 10.5457 11.8749 10.1236 11.6146 9.86323C11.3542 9.60288 10.9321 9.60288 10.6718 9.86323L8.14323 12.3918L7.2813 11.5299C7.02095 11.2695 6.59884 11.2695 6.33849 11.5299C6.07815 11.7902 6.07815 12.2123 6.33849 12.4727L7.67183 13.806C7.93218 14.0664 8.35429 14.0664 8.61464 13.806L11.6146 10.806Z" fill="#3E3E3E" fill-opacity="0.8"/>
</g>
<defs>
<clipPath id="clip0_156_5669">
<rect width="16" height="20" fill="white" transform="translate(0.810059 0.5)"/>
</clipPath>
</defs>
</svg>
