<svg width="14" height="13" viewBox="0 0 14 13" fill="none" xmlns="http://www.w3.org/2000/svg">
<path d="M5.46025 0.199219C5.10221 0.199219 4.75883 0.341451 4.50566 0.594625C4.25249 0.847799 4.11025 1.19118 4.11025 1.54922V3.80012H1.86025C1.50221 3.80012 1.15883 3.94235 0.90566 4.19553C0.652486 4.4487 0.510254 4.79208 0.510254 5.15012V7.85012C0.510254 8.20816 0.652486 8.55154 0.90566 8.80471C1.15883 9.05789 1.50221 9.20012 1.86025 9.20012H4.11025V11.4501C4.11025 11.8082 4.25249 12.1515 4.50566 12.4047C4.75883 12.6579 5.10221 12.8001 5.46025 12.8001H8.16025C8.5183 12.8001 8.86167 12.6579 9.11485 12.4047C9.36802 12.1515 9.51025 11.8082 9.51025 11.4501V9.20012H11.7603C12.1183 9.20012 12.4617 9.05789 12.7148 8.80471C12.968 8.55154 13.1103 8.20816 13.1103 7.85012V5.15012C13.1103 4.79208 12.968 4.4487 12.7148 4.19553C12.4617 3.94235 12.1183 3.80012 11.7603 3.80012H9.51025V1.54922C9.51025 1.19118 9.36802 0.847799 9.11485 0.594625C8.86167 0.341451 8.5183 0.199219 8.16025 0.199219H5.46025Z" fill="#3E3E3E" fill-opacity="0.8"/>
</svg>
