<svg width="33" height="25" viewBox="0 0 33 25" fill="none" xmlns="http://www.w3.org/2000/svg">
<g clip-path="url(#clip0_17_125)">
<g clip-path="url(#clip1_17_125)">
<path d="M7.62012 9.898C7.62012 8.873 7.62012 8.36 7.82312 7.97C7.99384 7.64155 8.26167 7.37372 8.59012 7.203C8.98012 7 9.49312 7 10.5181 7H21.7221C22.7471 7 23.2601 7 23.6501 7.203C23.9786 7.37372 24.2464 7.64155 24.4171 7.97C24.6201 8.36 24.6201 8.873 24.6201 9.898V16.102C24.6201 17.127 24.6201 17.64 24.4171 18.03C24.2464 18.3585 23.9786 18.6263 23.6501 18.797C23.2601 19 22.7471 19 21.7221 19H10.5181C9.49312 19 8.98012 19 8.59012 18.797C8.26167 18.6263 7.99384 18.3585 7.82312 18.03C7.62012 17.64 7.62012 17.127 7.62012 16.102V9.898Z" stroke="#3E3E3E"/>
<path d="M7.62012 11H24.6201" stroke="#3E3E3E" stroke-linecap="round"/>
<path d="M10.6201 16.5C10.8963 16.5 11.1201 16.2761 11.1201 16C11.1201 15.7239 10.8963 15.5 10.6201 15.5C10.344 15.5 10.1201 15.7239 10.1201 16C10.1201 16.2761 10.344 16.5 10.6201 16.5Z" fill="#3E3E3E"/>
<line x1="3.02855" y1="23.1591" x2="32.3596" y2="0.984292" stroke="#3E3E3E" stroke-width="0.6"/>
</g>
</g>
<defs>
<clipPath id="clip0_17_125">
<rect width="32" height="24" fill="white" transform="translate(0.120117 0.5)"/>
</clipPath>
<clipPath id="clip1_17_125">
<rect width="24" height="24" fill="white" transform="translate(4.12012 0.5)"/>
</clipPath>
</defs>
</svg>
