<svg width="238" height="75" viewBox="0 0 238 75" fill="none" xmlns="http://www.w3.org/2000/svg">
<path d="M30.36 20.68L30.68 22.76L8.2 54.6L8.12 53.32H32.6C34.7867 53.32 36.1733 53.0267 36.76 52.44C37.3467 51.8 37.7467 50.7333 37.96 49.24H39.32C39.32 51.8533 39.3467 53.8533 39.4 55.24C39.4533 56.6267 39.5333 57.9067 39.64 59.08C39.2667 58.9733 38.6533 58.92 37.8 58.92C37 58.8667 36.04 58.8133 34.92 58.76C33.8 58.7067 32.6267 58.68 31.4 58.68C30.1733 58.68 28.9467 58.68 27.72 58.68H4.36V57L30.36 20.68ZM31.64 20.68V74.28H25.24V29.16L30.36 20.68H31.64ZM77.1731 20.68C79.3065 20.68 81.1198 21.0267 82.6131 21.72C84.1065 22.4133 85.1998 23.0533 85.8931 23.64C87.6531 25.08 88.7198 24.12 89.0931 20.76H90.9331C90.8265 22.2533 90.7465 24.04 90.6931 26.12C90.6398 28.1467 90.6131 30.8933 90.6131 34.36H88.7731C88.4531 32.3867 87.8931 30.4667 87.0931 28.6C86.3465 26.7333 85.2265 25.2133 83.7331 24.04C82.2398 22.8133 80.2931 22.2 77.8931 22.2C76.0265 22.2 74.4531 22.7333 73.1731 23.8C71.9465 24.8133 71.3331 26.3333 71.3331 28.36C71.3331 29.96 71.8131 31.3467 72.7731 32.52C73.7331 33.64 74.9865 34.7067 76.5331 35.72C78.0798 36.68 79.7598 37.7467 81.5731 38.92C83.5998 40.2 85.4398 41.5067 87.0931 42.84C88.7465 44.1733 90.0531 45.64 91.0131 47.24C92.0265 48.84 92.5331 50.7333 92.5331 52.92C92.5331 55.3733 91.8931 57.4267 90.6131 59.08C89.3331 60.7333 87.6531 61.9867 85.5731 62.84C83.5465 63.6933 81.3065 64.12 78.8531 64.12C77.6798 64.12 76.5598 64.0133 75.4931 63.8C74.4798 63.64 73.4931 63.3733 72.5331 63C71.9998 62.7333 71.4398 62.4133 70.8531 62.04C70.3198 61.6667 69.7865 61.2667 69.2531 60.84C68.7198 60.4133 68.2398 60.44 67.8131 60.92C67.3865 61.3467 67.0665 62.2267 66.8531 63.56H65.0131C65.1198 61.8533 65.1998 59.7733 65.2531 57.32C65.3065 54.8667 65.3331 51.6133 65.3331 47.56H67.1731C67.5465 50.5467 68.0798 53.16 68.7731 55.4C69.4665 57.64 70.5598 59.4 72.0531 60.68C73.5465 61.9067 75.6265 62.52 78.2931 62.52C79.3598 62.52 80.4265 62.28 81.4931 61.8C82.6131 61.32 83.5465 60.52 84.2931 59.4C85.0398 58.28 85.4131 56.7867 85.4131 54.92C85.4131 52.5733 84.5598 50.6533 82.8531 49.16C81.1465 47.6667 78.9865 46.0933 76.3731 44.44C74.4531 43.2133 72.6398 41.9867 70.9331 40.76C69.2798 39.5333 67.9198 38.1467 66.8531 36.6C65.8398 35.0533 65.3331 33.1867 65.3331 31C65.3331 28.6 65.8665 26.6533 66.9331 25.16C68.0531 23.6133 69.5198 22.4933 71.3331 21.8C73.1465 21.0533 75.0931 20.68 77.1731 20.68ZM110.554 8.52V21.88H122.394V23.48H110.554V54.44C110.554 56.9467 111.008 58.7067 111.914 59.72C112.821 60.7333 114.074 61.24 115.674 61.24C117.274 61.24 118.661 60.6 119.834 59.32C121.008 57.9867 122.021 55.7733 122.874 52.68L124.474 53.08C123.941 56.1733 122.874 58.7867 121.274 60.92C119.728 63.0533 117.328 64.12 114.074 64.12C112.261 64.12 110.768 63.88 109.594 63.4C108.421 62.9733 107.381 62.3333 106.474 61.48C105.301 60.2533 104.474 58.7867 103.994 57.08C103.568 55.3733 103.354 53.1067 103.354 50.28V23.48H95.6744V21.88H103.354V9.64C104.688 9.58666 105.968 9.48 107.194 9.32C108.421 9.16 109.541 8.89333 110.554 8.52ZM136.356 63.56C134.169 63.56 132.276 63.16 130.676 62.36C129.076 61.5067 127.849 60.3333 126.996 58.84C126.196 57.3467 125.796 55.6133 125.796 53.64C125.796 51.2933 126.329 49.3733 127.396 47.88C128.516 46.3867 129.929 45.1867 131.636 44.28C133.342 43.3733 135.129 42.6267 136.996 42.04C138.916 41.4 140.729 40.8133 142.436 40.28C144.142 39.6933 145.529 39.0267 146.596 38.28C147.716 37.5333 148.276 36.5467 148.276 35.32V30.36C148.276 28.12 147.929 26.4133 147.236 25.24C146.596 24.0667 145.716 23.2933 144.596 22.92C143.476 22.4933 142.222 22.28 140.836 22.28C139.502 22.28 138.062 22.4667 136.516 22.84C135.022 23.2133 133.822 23.9867 132.916 25.16C133.929 25.3733 134.809 25.9067 135.556 26.76C136.302 27.6133 136.676 28.7067 136.676 30.04C136.676 31.3733 136.249 32.44 135.396 33.24C134.542 33.9867 133.449 34.36 132.116 34.36C130.569 34.36 129.422 33.88 128.676 32.92C127.982 31.9067 127.636 30.7867 127.636 29.56C127.636 28.1733 127.982 27.0533 128.676 26.2C129.369 25.3467 130.249 24.5467 131.316 23.8C132.542 22.9467 134.116 22.2267 136.036 21.64C138.009 21 140.222 20.68 142.676 20.68C144.862 20.68 146.729 20.9467 148.276 21.48C149.822 21.96 151.102 22.68 152.116 23.64C153.502 24.92 154.409 26.4933 154.836 28.36C155.262 30.1733 155.476 32.36 155.476 34.92V57.16C155.476 58.4933 155.662 59.4533 156.036 60.04C156.462 60.6267 157.102 60.92 157.956 60.92C158.542 60.92 159.102 60.7867 159.636 60.52C160.169 60.2533 160.809 59.8267 161.556 59.24L162.436 60.6C161.316 61.4533 160.249 62.1733 159.236 62.76C158.222 63.2933 156.862 63.56 155.156 63.56C153.609 63.56 152.329 63.2933 151.316 62.76C150.302 62.2267 149.529 61.4533 148.996 60.44C148.516 59.3733 148.276 58.04 148.276 56.44C146.836 58.84 145.102 60.6267 143.076 61.8C141.102 62.9733 138.862 63.56 136.356 63.56ZM139.236 60.36C140.996 60.36 142.622 59.8533 144.116 58.84C145.662 57.8267 147.049 56.3067 148.276 54.28V38.6C147.636 39.5067 146.702 40.28 145.476 40.92C144.249 41.5067 142.916 42.12 141.476 42.76C140.036 43.3467 138.649 44.0667 137.316 44.92C136.036 45.72 134.969 46.7867 134.116 48.12C133.262 49.4533 132.836 51.1867 132.836 53.32C132.836 55.4533 133.396 57.16 134.516 58.44C135.689 59.72 137.262 60.36 139.236 60.36ZM188.759 20.68C190.199 20.68 191.453 20.9733 192.519 21.56C193.639 22.1467 194.493 22.92 195.079 23.88C195.719 24.7867 196.039 25.8267 196.039 27C196.039 28.3333 195.613 29.5067 194.759 30.52C193.959 31.5333 192.866 32.04 191.479 32.04C190.359 32.04 189.373 31.6933 188.519 31C187.666 30.2533 187.239 29.2133 187.239 27.88C187.239 26.8667 187.506 26.0133 188.039 25.32C188.626 24.5733 189.266 23.9867 189.959 23.56C189.586 23.0267 189.026 22.76 188.279 22.76C186.626 22.76 185.106 23.2667 183.719 24.28C182.333 25.24 181.159 26.4933 180.199 28.04C179.239 29.5867 178.493 31.24 177.959 33C177.426 34.7067 177.159 36.3067 177.159 37.8V54.76C177.159 57.3733 177.906 59.1333 179.399 60.04C180.946 60.8933 183.026 61.32 185.639 61.32V63C184.413 62.9467 182.679 62.8933 180.439 62.84C178.199 62.7333 175.826 62.68 173.319 62.68C171.506 62.68 169.693 62.7333 167.879 62.84C166.119 62.8933 164.786 62.9467 163.879 63V61.32C166.066 61.32 167.613 60.92 168.519 60.12C169.479 59.32 169.959 57.8 169.959 55.56V30.52C169.959 28.12 169.533 26.36 168.679 25.24C167.826 24.0667 166.226 23.48 163.879 23.48V21.8C165.586 21.96 167.239 22.04 168.839 22.04C170.386 22.04 171.853 21.96 173.239 21.8C174.679 21.5867 175.986 21.2933 177.159 20.92V30.92C177.746 29.3733 178.573 27.8267 179.639 26.28C180.759 24.68 182.093 23.3467 183.639 22.28C185.186 21.2133 186.893 20.68 188.759 20.68Z" fill="#094C9F"/>
<path d="M218.333 44.6667H211.667C211.477 44.6667 211.319 44.6027 211.192 44.4747C211.065 44.3467 211.001 44.188 211 43.9987C210.999 43.8093 211.063 43.6511 211.192 43.524C211.321 43.3969 211.479 43.3333 211.667 43.3333H218.333V36.6667C218.333 36.4773 218.397 36.3191 218.525 36.192C218.653 36.0649 218.812 36.0009 219.001 36C219.191 35.9991 219.349 36.0631 219.476 36.192C219.603 36.3209 219.667 36.4791 219.667 36.6667V43.3333H226.333C226.523 43.3333 226.681 43.3973 226.808 43.5253C226.935 43.6533 226.999 43.812 227 44.0013C227.001 44.1907 226.937 44.3489 226.808 44.476C226.679 44.6031 226.521 44.6667 226.333 44.6667H219.667V51.3333C219.667 51.5227 219.603 51.6809 219.475 51.808C219.347 51.9351 219.188 51.9991 218.999 52C218.809 52.0009 218.651 51.9369 218.524 51.808C218.397 51.6791 218.333 51.5209 218.333 51.3333V44.6667Z" fill="#094C9F"/>
</svg>
