<svg width="28" height="28" viewBox="0 0 28 28" fill="none" xmlns="http://www.w3.org/2000/svg">
<path d="M24.4994 26.2501H7.00012" stroke="#323131" stroke-width="1.00012" stroke-linecap="round" stroke-linejoin="round"/>
<path d="M3.50026 22.7502C3.50026 23.6784 3.86899 24.5686 4.52535 25.225C4.85034 25.55 5.23616 25.8078 5.66078 25.9836C6.08541 26.1595 6.54051 26.2501 7.00012 26.2501" stroke="#323131" stroke-width="1.00012" stroke-linecap="round" stroke-linejoin="round"/>
<path d="M3.50026 22.7502C3.50026 21.822 3.86899 20.9318 4.52535 20.2754C5.1817 19.6191 6.0719 19.2503 7.00012 19.2503" stroke="#323131" stroke-width="1.00012" stroke-linecap="round" stroke-linejoin="round"/>
<path d="M24.4994 19.2503H7.00012" stroke="#323131" stroke-width="1.00012" stroke-linecap="round" stroke-linejoin="round"/>
<path d="M3.50026 5.2509C3.50026 4.79129 3.59079 4.33618 3.76667 3.91156C3.94256 3.48694 4.20035 3.10112 4.52535 2.77612C4.85034 2.45113 5.23616 2.19333 5.66078 2.01745C6.08541 1.84156 6.54051 1.75104 7.00012 1.75104" stroke="#323131" stroke-width="1.00012" stroke-linecap="round" stroke-linejoin="round"/>
<path d="M24.4994 1.75104L7.00012 1.75104" stroke="#323131" stroke-width="1.00012" stroke-linecap="round" stroke-linejoin="round"/>
<path d="M3.50026 5.25089V22.7502" stroke="#323131" stroke-width="1.00012" stroke-linecap="round" stroke-linejoin="round"/>
<path d="M7.00012 19.2503V1.74997" stroke="#323131" stroke-width="1.00012" stroke-linecap="round" stroke-linejoin="round"/>
<path d="M24.4994 1.75104V19.2504" stroke="#323131" stroke-width="1.00012" stroke-linecap="round" stroke-linejoin="round"/>
<path d="M24.4994 19.2503C23.3988 21.5483 23.3382 23.8796 24.4994 26.2501" stroke="#323131" stroke-width="1.00012" stroke-linecap="round" stroke-linejoin="round"/>
</svg>
