<svg width="20" height="20" viewBox="0 0 20 20" fill="none" xmlns="http://www.w3.org/2000/svg">
<g clip-path="url(#clip0_156_5628)">
<g clip-path="url(#clip1_156_5628)">
<path fill-rule="evenodd" clip-rule="evenodd" d="M1.69308 9.9987C1.69283 9.88718 1.67092 9.77578 1.62737 9.67081L1.02617 8.21516C0.899158 7.9086 0.833549 7.57952 0.833496 7.24769C0.833443 6.91568 0.898809 6.58691 1.02586 6.28017C1.15291 5.97342 1.33916 5.69472 1.57396 5.45999C1.8087 5.22531 2.08737 5.03918 2.39405 4.91222L3.84733 4.31023C4.0578 4.22321 4.22566 4.05609 4.31328 3.84586L4.91541 2.39215C5.1719 1.77291 5.66387 1.28091 6.2831 1.02441C6.90233 0.767905 7.5981 0.767905 8.21734 1.02441L9.66993 1.62612C9.88072 1.71314 10.1177 1.71303 10.3283 1.62562L10.3299 1.62494L11.7838 1.0253C12.4028 0.769139 13.0988 0.769055 13.7177 1.02544C14.3368 1.2819 14.8287 1.77375 15.0852 2.39283L15.6729 3.81163C15.6781 3.82283 15.6831 3.83419 15.6879 3.84571C15.775 4.0564 15.9422 4.2239 16.1526 4.31145L17.6067 4.91378C18.226 5.17029 18.718 5.66228 18.9744 6.28152C19.2309 6.90076 19.2309 7.59653 18.9744 8.21576L18.3725 9.66909C18.3288 9.77465 18.3069 9.8871 18.3069 9.99898C18.3069 10.1108 18.3288 10.2228 18.3725 10.3283L18.9744 11.7817C19.2309 12.4009 19.2309 13.0967 18.9744 13.7159C18.718 14.3351 18.226 14.8271 17.6067 15.0836L16.1526 15.686C15.9422 15.7735 15.775 15.941 15.6879 16.1517C15.6831 16.1632 15.6781 16.1746 15.6729 16.1858L15.0852 17.6046C14.8287 18.2237 14.3368 18.7155 13.7177 18.972C13.0988 19.2284 12.4028 19.2283 11.7838 18.9721L10.3299 18.3725L10.3283 18.3718C10.1177 18.2844 9.88072 18.2843 9.66993 18.3713L8.21734 18.973C7.5981 19.2295 6.90233 19.2295 6.2831 18.973C5.66387 18.7165 5.1719 18.2245 4.91541 17.6053L4.31328 16.1516C4.22566 15.9413 4.0578 15.7742 3.84733 15.6872L2.39405 15.0852C2.08737 14.9582 1.8087 14.7721 1.57396 14.5374C1.33916 14.3027 1.15291 14.024 1.02586 13.7172C0.898809 13.4105 0.833443 13.0817 0.833496 12.7497C0.833549 12.4179 0.899158 12.0888 1.02617 11.7823L1.62737 10.3266C1.67092 10.2216 1.69283 10.1102 1.69308 9.9987ZM13.5061 8.50462C13.8315 8.17918 13.8315 7.65155 13.5061 7.32611C13.1806 7.00067 12.653 7.00067 12.3276 7.32611L9.16683 10.4869L8.08942 9.40944C7.76398 9.08401 7.23634 9.08401 6.91091 9.40944C6.58547 9.73488 6.58547 10.2625 6.91091 10.588L8.57757 12.2546C8.90301 12.5801 9.43065 12.5801 9.75608 12.2546L13.5061 8.50462Z" fill="url(#paint0_linear_156_5628)"/>
</g>
</g>
<defs>
<linearGradient id="paint0_linear_156_5628" x1="16.0005" y1="0.99878" x2="5.50049" y2="18.9988" gradientUnits="userSpaceOnUse">
<stop stop-color="#CA7900"/>
<stop offset="0.568804" stop-color="#FFCE85"/>
<stop offset="1" stop-color="#C97800"/>
</linearGradient>
<clipPath id="clip0_156_5628">
<rect width="20" height="20" fill="white"/>
</clipPath>
<clipPath id="clip1_156_5628">
<rect width="20" height="20" fill="white"/>
</clipPath>
</defs>
</svg>
