<svg width="54" height="54" viewBox="0 0 54 54" fill="none" xmlns="http://www.w3.org/2000/svg">
<g clip-path="url(#clip0_1067_6452)">
<path d="M18.8114 1.77635C13.4159 3.64807 8.76292 7.20067 5.53577 11.9123C2.30862 16.624 0.677456 22.2463 0.881859 27.9535C1.08626 33.6608 3.11546 39.152 6.6714 43.6207C10.2273 48.0894 15.1226 51.3001 20.6381 52.781C25.1097 53.9348 29.7945 53.9855 34.29 52.9287C38.3624 52.0139 42.1275 50.0573 45.2166 47.2503C48.4316 44.2395 50.7652 40.4095 51.9666 36.1718C53.2724 31.5635 53.5047 26.7173 52.6458 22.0053H27.5358V32.4213H42.0778C41.7872 34.0826 41.1644 35.6682 40.2467 37.0832C39.3289 38.4982 38.1352 39.7135 36.7369 40.6563C34.9611 41.831 32.9594 42.6213 30.8601 42.9767C28.7547 43.3681 26.5952 43.3681 24.4898 42.9767C22.3559 42.5355 20.3373 41.6547 18.5625 40.3906C15.7112 38.3723 13.5703 35.5049 12.4453 32.1978C11.3012 28.8286 11.3012 25.1761 12.4453 21.807C13.2461 19.4454 14.57 17.2952 16.3181 15.5168C18.3186 13.4443 20.8513 11.9629 23.6383 11.2351C26.4253 10.5073 29.3589 10.5612 32.1173 11.3909C34.2721 12.0523 36.2426 13.2081 37.8717 14.7659C39.5114 13.1346 41.1483 11.4992 42.7823 9.85947C43.6261 8.97775 44.5458 8.13822 45.3769 7.23541C42.8902 4.92132 39.9713 3.12068 36.7875 1.93666C30.9897 -0.168542 24.6458 -0.225117 18.8114 1.77635Z" fill="white"/>
<path d="M18.8116 1.77644C24.6455 -0.22638 30.9894 -0.171294 36.7877 1.93254C39.9721 3.1246 42.8896 4.93392 45.3728 7.2566C44.5291 8.15941 43.6389 9.00316 42.7783 9.88066C41.1414 11.5147 39.506 13.1432 37.8719 14.766C36.2428 13.2081 34.2723 12.0524 32.1175 11.391C29.36 10.5584 26.4265 10.5014 23.6388 11.2262C20.851 11.951 18.3168 13.4297 16.3141 15.5C14.566 17.2784 13.2421 19.4286 12.4413 21.7902L3.6958 15.0191C6.82615 8.81147 12.2461 4.06311 18.8116 1.77644Z" fill="#E33629"/>
<path d="M1.37516 21.7264C1.84522 19.3967 2.62562 17.1407 3.69548 15.0186L12.4409 21.8065C11.2969 25.1756 11.2969 28.8282 12.4409 32.1973C9.52719 34.4473 6.61204 36.7086 3.69548 38.9811C1.01721 33.6499 0.20038 27.5757 1.37516 21.7264Z" fill="#F8BD00"/>
<path d="M27.5356 22.001H52.6456C53.5045 26.713 53.2722 31.5593 51.9664 36.1675C50.765 40.4052 48.4314 44.2352 45.2164 47.246C42.394 45.0438 39.559 42.8585 36.7367 40.6563C38.1359 39.7125 39.3302 38.4958 40.248 37.0793C41.1657 35.6629 41.788 34.0756 42.0776 32.4129H27.5356C27.5313 28.945 27.5356 25.473 27.5356 22.001Z" fill="#587DBD"/>
<path d="M3.69141 38.981C6.60797 36.731 9.52312 34.4698 12.4369 32.1973C13.5642 35.5056 15.7081 38.3731 18.5625 40.3901C20.3428 41.6484 22.3658 42.5219 24.5025 42.9551C26.6079 43.3466 28.7674 43.3466 30.8728 42.9551C32.972 42.5997 34.9738 41.8094 36.7495 40.6348C39.5719 42.837 42.4069 45.0223 45.2292 47.2245C42.1406 50.033 38.3755 51.9911 34.3027 52.9071C29.8072 53.9639 25.1223 53.9133 20.6508 52.7595C17.1142 51.8152 13.8108 50.1506 10.9477 47.8699C7.91716 45.4639 5.442 42.4318 3.69141 38.981Z" fill="#319F43"/>
</g>
<defs>
<clipPath id="clip0_1067_6452">
<rect width="54" height="54" fill="white"/>
</clipPath>
</defs>
</svg>
