<svg width="40" height="40" viewBox="0 0 40 40" fill="none" xmlns="http://www.w3.org/2000/svg">
<g clip-path="url(#clip0_162_4159)">
<g clip-path="url(#clip1_162_4159)">
<path d="M1.66699 21.6666C1.66699 11.5414 9.87511 3.33325 20.0003 3.33325C30.1255 3.33325 38.3337 11.5414 38.3337 21.6666V28.3333C38.3337 29.2537 37.5875 29.9999 36.667 29.9999C35.7465 29.9999 35.0003 29.2537 35.0003 28.3333V21.6666C35.0003 13.3823 28.2846 6.66659 20.0003 6.66659C11.7161 6.66659 5.00033 13.3823 5.00033 21.6666V28.3333C5.00033 29.2537 4.25413 29.9999 3.33366 29.9999C2.41318 29.9999 1.66699 29.2537 1.66699 28.3333V21.6666Z" fill="#094C9F"/>
<path fill-rule="evenodd" clip-rule="evenodd" d="M6.66699 25.8334C6.66699 22.6117 9.27866 20 12.5003 20C15.722 20 18.3337 22.6117 18.3337 25.8334V30.8334C18.3337 34.055 15.722 36.6667 12.5003 36.6667C9.27866 36.6667 6.66699 34.055 6.66699 30.8334V25.8334Z" fill="#094C9F"/>
<path fill-rule="evenodd" clip-rule="evenodd" d="M27.5003 20C24.2787 20 21.667 22.6117 21.667 25.8334V30.8334C21.667 34.055 24.2787 36.6667 27.5003 36.6667C30.722 36.6667 33.3337 34.055 33.3337 30.8334V25.8334C33.3337 22.6117 30.722 20 27.5003 20Z" fill="#094C9F"/>
</g>
</g>
<defs>
<clipPath id="clip0_162_4159">
<rect width="40" height="40" fill="white"/>
</clipPath>
<clipPath id="clip1_162_4159">
<rect width="40" height="40" fill="white"/>
</clipPath>
</defs>
</svg>
