<svg width="48" height="48" viewBox="0 0 48 48" fill="none" xmlns="http://www.w3.org/2000/svg">
<path d="M6.85019 18.66C7.97285 14.9693 10.0969 11.936 13.2222 9.56C16.3475 7.18401 19.9402 5.99734 24.0002 6C26.2882 6 28.4402 6.39334 30.4562 7.18C32.4722 7.96667 34.2829 9.068 35.8882 10.484C35.7042 10.8893 35.5535 11.2593 35.4362 11.594C35.3202 11.9287 35.2249 12.2473 35.1502 12.55C33.6835 11.15 32.0002 10.042 30.1002 9.226C28.2002 8.41 26.1669 8.00134 24.0002 8C20.6335 8 17.6169 8.942 14.9502 10.826C12.2835 12.71 10.3502 15.118 9.15019 18.05C8.73685 18.042 8.33619 18.0867 7.94819 18.184C7.56019 18.2813 7.19419 18.4407 6.85019 18.662M24.0002 42C19.9389 42 16.3455 40.8193 13.2202 38.458C10.0949 36.0967 7.97152 33.07 6.85019 29.378C7.18619 29.598 7.54819 29.758 7.93619 29.858C8.32419 29.958 8.72885 30.0053 9.15019 30C10.3502 32.9333 12.2835 35.3333 14.9502 37.2C17.6169 39.0667 20.6335 40 24.0002 40C28.4335 40 32.2089 38.442 35.3262 35.326C38.4435 32.21 40.0015 28.4347 40.0002 24C40.0002 23.4333 39.9749 22.8667 39.9242 22.3C39.8735 21.7333 39.7822 21.1667 39.6502 20.6C39.9395 20.6827 40.2182 20.7573 40.4862 20.824C40.7542 20.8907 41.0409 20.9367 41.3462 20.962C41.4155 20.962 41.4849 20.958 41.5542 20.95C41.6235 20.942 41.6889 20.9307 41.7502 20.916C41.8435 21.4227 41.9082 21.928 41.9442 22.432C41.9815 22.936 42.0002 23.4587 42.0002 24C42.0002 26.4853 41.5269 28.8227 40.5802 31.012C39.6322 33.2013 38.3482 35.106 36.7282 36.726C35.1069 38.3473 33.2015 39.6313 31.0122 40.578C28.8229 41.526 26.4855 42 24.0002 42ZM16.8002 22.354L20.1162 19L16.7502 15.634L15.5342 16.85L17.6842 18.95L15.5342 21.1L16.8002 22.354ZM42.0002 17.384C41.0802 17.384 40.2862 17.0507 39.6182 16.384C38.9502 15.7147 38.6162 14.92 38.6162 14C38.6162 13.2027 38.8209 12.3727 39.2302 11.51C39.6409 10.6473 40.5642 9.16934 42.0002 7.076C43.4362 9.16934 44.3589 10.6473 44.7682 11.51C45.1789 12.3727 45.3842 13.2027 45.3842 14C45.3842 14.92 45.0509 15.714 44.3842 16.382C43.7149 17.05 42.9202 17.384 42.0002 17.384ZM31.2502 22.364L32.5162 21.1L30.3662 18.95L32.4662 16.85L31.2502 15.634L27.8842 19L31.2502 22.364ZM24.0002 27C23.0829 27 22.1709 27.132 21.2642 27.396C20.3575 27.66 19.4989 28.0653 18.6882 28.612L11.3842 24.346C11.3842 23.8633 11.2895 23.402 11.1002 22.962C10.9109 22.522 10.6082 22.1807 10.1922 21.938C9.61219 21.6153 9.00752 21.5367 8.37819 21.702C7.74885 21.8673 7.26885 22.236 6.93819 22.808C6.61552 23.388 6.53685 23.9927 6.70219 24.622C6.86752 25.2513 7.23619 25.7313 7.80819 26.062C8.22285 26.302 8.67152 26.3967 9.15419 26.346C9.63685 26.2953 10.0855 26.1487 10.5002 25.906L17.2202 29.782C16.8069 30.194 16.4202 30.642 16.0602 31.126C15.7002 31.61 15.3829 32.1573 15.1082 32.768H17.1002C17.8002 31.568 18.7502 30.6013 19.9502 29.868C21.1502 29.1347 22.5002 28.768 24.0002 28.768C25.5002 28.768 26.8502 29.1347 28.0502 29.868C29.2502 30.6013 30.2002 31.568 30.9002 32.768H32.8922C31.9642 30.8307 30.6942 29.3847 29.0822 28.43C27.4715 27.4767 25.7775 27 24.0002 27Z" fill="#858585"/>
</svg>
