<svg width="29" height="28" viewBox="0 0 29 28" fill="none" xmlns="http://www.w3.org/2000/svg">
<path fill-rule="evenodd" clip-rule="evenodd" d="M6.86768 13.9999C6.86768 10.313 9.85645 7.32422 13.5433 7.32422C17.2303 7.32422 20.2191 10.313 20.2191 13.9999C20.2191 17.6868 17.2303 20.6756 13.5433 20.6756C9.85645 20.6756 6.86768 17.6868 6.86768 13.9999ZM13.5433 18.3332C11.1501 18.3332 9.21002 16.3932 9.21002 13.9999C9.21002 11.6066 11.1501 9.66656 13.5433 9.66656C15.9365 9.66656 17.8767 11.6066 17.8767 13.9999C17.8767 16.3932 15.9365 18.3332 13.5433 18.3332Z" fill="url(#paint0_linear_18_150)"/>
<path fill-rule="evenodd" clip-rule="evenodd" d="M6.86768 13.9999C6.86768 10.313 9.85645 7.32422 13.5433 7.32422C17.2303 7.32422 20.2191 10.313 20.2191 13.9999C20.2191 17.6868 17.2303 20.6756 13.5433 20.6756C9.85645 20.6756 6.86768 17.6868 6.86768 13.9999ZM13.5433 18.3332C11.1501 18.3332 9.21002 16.3932 9.21002 13.9999C9.21002 11.6066 11.1501 9.66656 13.5433 9.66656C15.9365 9.66656 17.8767 11.6066 17.8767 13.9999C17.8767 16.3932 15.9365 18.3332 13.5433 18.3332Z" fill="url(#paint1_radial_18_150)"/>
<path d="M20.4829 8.62049C21.3444 8.62049 22.0429 7.92208 22.0429 7.06051C22.0429 6.19895 21.3444 5.50049 20.4829 5.50049C19.6214 5.50049 18.9229 6.19895 18.9229 7.06051C18.9229 7.92208 19.6214 8.62049 20.4829 8.62049Z" fill="url(#paint2_linear_18_150)"/>
<path d="M20.4829 8.62049C21.3444 8.62049 22.0429 7.92208 22.0429 7.06051C22.0429 6.19895 21.3444 5.50049 20.4829 5.50049C19.6214 5.50049 18.9229 6.19895 18.9229 7.06051C18.9229 7.92208 19.6214 8.62049 20.4829 8.62049Z" fill="url(#paint3_radial_18_150)"/>
<path fill-rule="evenodd" clip-rule="evenodd" d="M13.5435 1C10.0129 1 9.57016 1.01497 8.18358 1.07823C6.79988 1.14134 5.85486 1.36112 5.02796 1.68251C4.1731 2.01468 3.44812 2.4592 2.72536 3.1819C2.00265 3.90467 1.55814 4.62964 1.22597 5.4845C0.904579 6.3114 0.6848 7.25642 0.621688 8.64012C0.558422 10.0267 0.543457 10.4694 0.543457 14C0.543457 17.5306 0.558422 17.9733 0.621688 19.3599C0.6848 20.7435 0.904579 21.6886 1.22597 22.5155C1.55814 23.3704 2.00265 24.0954 2.72536 24.8181C3.44812 25.5409 4.1731 25.9854 5.02796 26.3175C5.85486 26.6389 6.79988 26.8586 8.18358 26.9218C9.57016 26.9851 10.0129 27 13.5435 27C17.074 27 17.5168 26.9851 18.9034 26.9218C20.287 26.8586 21.2321 26.6389 22.059 26.3175C22.9139 25.9854 23.6388 25.5409 24.3615 24.8181C25.0843 24.0954 25.5288 23.3704 25.861 22.5155C26.1824 21.6886 26.4021 20.7435 26.4652 19.3599C26.5285 17.9733 26.5435 17.5306 26.5435 14C26.5435 10.4694 26.5285 10.0267 26.4652 8.64012C26.4021 7.25642 26.1824 6.3114 25.861 5.4845C25.5288 4.62964 25.0843 3.90467 24.3615 3.1819C23.6388 2.4592 22.9139 2.01468 22.059 1.68251C21.2321 1.36112 20.287 1.14134 18.9034 1.07823C17.5168 1.01497 17.074 1 13.5435 1ZM13.5435 3.34234C17.0146 3.34234 17.4258 3.3556 18.7965 3.41814C20.064 3.47594 20.7524 3.68772 21.2105 3.86575C21.8173 4.10158 22.2503 4.38328 22.7052 4.83822C23.1602 5.29311 23.4419 5.72616 23.6777 6.33297C23.8557 6.79106 24.0675 7.4794 24.1254 8.74688C24.1879 10.1177 24.2011 10.5289 24.2011 14C24.2011 17.4711 24.1879 17.8823 24.1254 19.2531C24.0675 20.5206 23.8557 21.2089 23.6777 21.6671C23.4419 22.2738 23.1602 22.7069 22.7052 23.1618C22.2503 23.6168 21.8173 23.8984 21.2105 24.1343C20.7524 24.3123 20.064 24.524 18.7965 24.5819C17.426 24.6444 17.0149 24.6576 13.5435 24.6576C10.0721 24.6576 9.66099 24.6444 8.29034 24.5819C7.02285 24.524 6.33451 24.3123 5.87644 24.1343C5.26963 23.8984 4.83657 23.6168 4.38169 23.1618C3.92679 22.7069 3.64504 22.2738 3.40921 21.6671C3.23119 21.2089 3.0194 20.5206 2.96161 19.2531C2.89906 17.8823 2.8858 17.4711 2.8858 14C2.8858 10.5289 2.89906 10.1177 2.96161 8.74688C3.0194 7.4794 3.23119 6.79106 3.40921 6.33297C3.64504 5.72616 3.92675 5.29311 4.38169 4.83822C4.83657 4.38328 5.26963 4.10158 5.87644 3.86575C6.33451 3.68772 7.02285 3.47594 8.29034 3.41814C9.66114 3.3556 10.0723 3.34234 13.5435 3.34234Z" fill="url(#paint4_linear_18_150)"/>
<path fill-rule="evenodd" clip-rule="evenodd" d="M13.5435 1C10.0129 1 9.57016 1.01497 8.18358 1.07823C6.79988 1.14134 5.85486 1.36112 5.02796 1.68251C4.1731 2.01468 3.44812 2.4592 2.72536 3.1819C2.00265 3.90467 1.55814 4.62964 1.22597 5.4845C0.904579 6.3114 0.6848 7.25642 0.621688 8.64012C0.558422 10.0267 0.543457 10.4694 0.543457 14C0.543457 17.5306 0.558422 17.9733 0.621688 19.3599C0.6848 20.7435 0.904579 21.6886 1.22597 22.5155C1.55814 23.3704 2.00265 24.0954 2.72536 24.8181C3.44812 25.5409 4.1731 25.9854 5.02796 26.3175C5.85486 26.6389 6.79988 26.8586 8.18358 26.9218C9.57016 26.9851 10.0129 27 13.5435 27C17.074 27 17.5168 26.9851 18.9034 26.9218C20.287 26.8586 21.2321 26.6389 22.059 26.3175C22.9139 25.9854 23.6388 25.5409 24.3615 24.8181C25.0843 24.0954 25.5288 23.3704 25.861 22.5155C26.1824 21.6886 26.4021 20.7435 26.4652 19.3599C26.5285 17.9733 26.5435 17.5306 26.5435 14C26.5435 10.4694 26.5285 10.0267 26.4652 8.64012C26.4021 7.25642 26.1824 6.3114 25.861 5.4845C25.5288 4.62964 25.0843 3.90467 24.3615 3.1819C23.6388 2.4592 22.9139 2.01468 22.059 1.68251C21.2321 1.36112 20.287 1.14134 18.9034 1.07823C17.5168 1.01497 17.074 1 13.5435 1ZM13.5435 3.34234C17.0146 3.34234 17.4258 3.3556 18.7965 3.41814C20.064 3.47594 20.7524 3.68772 21.2105 3.86575C21.8173 4.10158 22.2503 4.38328 22.7052 4.83822C23.1602 5.29311 23.4419 5.72616 23.6777 6.33297C23.8557 6.79106 24.0675 7.4794 24.1254 8.74688C24.1879 10.1177 24.2011 10.5289 24.2011 14C24.2011 17.4711 24.1879 17.8823 24.1254 19.2531C24.0675 20.5206 23.8557 21.2089 23.6777 21.6671C23.4419 22.2738 23.1602 22.7069 22.7052 23.1618C22.2503 23.6168 21.8173 23.8984 21.2105 24.1343C20.7524 24.3123 20.064 24.524 18.7965 24.5819C17.426 24.6444 17.0149 24.6576 13.5435 24.6576C10.0721 24.6576 9.66099 24.6444 8.29034 24.5819C7.02285 24.524 6.33451 24.3123 5.87644 24.1343C5.26963 23.8984 4.83657 23.6168 4.38169 23.1618C3.92679 22.7069 3.64504 22.2738 3.40921 21.6671C3.23119 21.2089 3.0194 20.5206 2.96161 19.2531C2.89906 17.8823 2.8858 17.4711 2.8858 14C2.8858 10.5289 2.89906 10.1177 2.96161 8.74688C3.0194 7.4794 3.23119 6.79106 3.40921 6.33297C3.64504 5.72616 3.92675 5.29311 4.38169 4.83822C4.83657 4.38328 5.26963 4.10158 5.87644 3.86575C6.33451 3.68772 7.02285 3.47594 8.29034 3.41814C9.66114 3.3556 10.0723 3.34234 13.5435 3.34234Z" fill="url(#paint5_radial_18_150)"/>
<defs>
<linearGradient id="paint0_linear_18_150" x1="2.06036" y1="2.36679" x2="10.2579" y2="34.076" gradientUnits="userSpaceOnUse">
<stop stop-color="#4E60D3"/>
<stop offset="0.142763" stop-color="#913BAF"/>
<stop offset="0.761458" stop-color="#D52D88"/>
<stop offset="1" stop-color="#F26D4F"/>
</linearGradient>
<radialGradient id="paint1_radial_18_150" cx="0" cy="0" r="1" gradientUnits="userSpaceOnUse" gradientTransform="translate(8.41468 26.9999) rotate(32.1601) scale(24.2826 17.4755)">
<stop stop-color="#FED276"/>
<stop offset="0.17024" stop-color="#FDBD61" stop-opacity="0.975006"/>
<stop offset="0.454081" stop-color="#F6804D"/>
<stop offset="1" stop-color="#E83D5C" stop-opacity="0.01"/>
</radialGradient>
<linearGradient id="paint2_linear_18_150" x1="2.06046" y1="2.36683" x2="10.258" y2="34.076" gradientUnits="userSpaceOnUse">
<stop stop-color="#4E60D3"/>
<stop offset="0.142763" stop-color="#913BAF"/>
<stop offset="0.761458" stop-color="#D52D88"/>
<stop offset="1" stop-color="#F26D4F"/>
</linearGradient>
<radialGradient id="paint3_radial_18_150" cx="0" cy="0" r="1" gradientUnits="userSpaceOnUse" gradientTransform="translate(8.41477 26.9999) rotate(32.1601) scale(24.2826 17.4755)">
<stop stop-color="#FED276"/>
<stop offset="0.17024" stop-color="#FDBD61" stop-opacity="0.975006"/>
<stop offset="0.454081" stop-color="#F6804D"/>
<stop offset="1" stop-color="#E83D5C" stop-opacity="0.01"/>
</radialGradient>
<linearGradient id="paint4_linear_18_150" x1="2.06047" y1="2.3669" x2="10.2581" y2="34.0761" gradientUnits="userSpaceOnUse">
<stop stop-color="#4E60D3"/>
<stop offset="0.142763" stop-color="#913BAF"/>
<stop offset="0.761458" stop-color="#D52D88"/>
<stop offset="1" stop-color="#F26D4F"/>
</linearGradient>
<radialGradient id="paint5_radial_18_150" cx="0" cy="0" r="1" gradientUnits="userSpaceOnUse" gradientTransform="translate(8.41478 27) rotate(32.1601) scale(24.2826 17.4755)">
<stop stop-color="#FED276"/>
<stop offset="0.17024" stop-color="#FDBD61" stop-opacity="0.975006"/>
<stop offset="0.454081" stop-color="#F6804D"/>
<stop offset="1" stop-color="#E83D5C" stop-opacity="0.01"/>
</radialGradient>
</defs>
</svg>
