<svg width="20" height="20" viewBox="0 0 20 20" fill="none" xmlns="http://www.w3.org/2000/svg">
<g clip-path="url(#clip0_119_8909)">
<g clip-path="url(#clip1_119_8909)">
<path d="M17.5098 7.5V2.5M17.5098 2.5H12.5098M17.5098 2.5L10.8431 9.16667M8.3431 4.16667H6.50977C5.10964 4.16667 4.40957 4.16667 3.87479 4.43915C3.40439 4.67883 3.02194 5.06129 2.78225 5.53169C2.50977 6.06647 2.50977 6.76654 2.50977 8.16667V13.5C2.50977 14.9001 2.50977 15.6002 2.78225 16.135C3.02194 16.6054 3.40439 16.9878 3.87479 17.2275C4.40957 17.5 5.10964 17.5 6.50977 17.5H11.8431C13.2433 17.5 13.9433 17.5 14.4781 17.2275C14.9485 16.9878 15.331 16.6054 15.5706 16.135C15.8431 15.6002 15.8431 14.9001 15.8431 13.5V11.6667" stroke="#3E3E3E" stroke-linecap="round" stroke-linejoin="round"/>
</g>
</g>
<defs>
<clipPath id="clip0_119_8909">
<rect width="20" height="20" fill="white" transform="translate(0.00976562)"/>
</clipPath>
<clipPath id="clip1_119_8909">
<rect width="20" height="20" fill="white" transform="translate(0.00976562)"/>
</clipPath>
</defs>
</svg>
