<svg width="29" height="28" viewBox="0 0 29 28" fill="none" xmlns="http://www.w3.org/2000/svg">
<g clip-path="url(#clip0_62_618)">
<path d="M21.981 0H7.10596C3.48159 0 0.543457 2.93813 0.543457 6.5625V21.4375C0.543457 25.0619 3.48159 28 7.10596 28H21.981C25.6053 28 28.5435 25.0619 28.5435 21.4375V6.5625C28.5435 2.93813 25.6053 0 21.981 0Z" fill="white"/>
<path d="M21.981 0H7.10596C3.48159 0 0.543457 2.93813 0.543457 6.5625V21.4375C0.543457 25.0619 3.48159 28 7.10596 28H21.981C25.6053 28 28.5435 25.0619 28.5435 21.4375V6.5625C28.5435 2.93813 25.6053 0 21.981 0Z" fill="#0A66C2"/>
<path d="M20.7467 23.8093H23.9481C24.0641 23.8093 24.1753 23.7632 24.2574 23.6812C24.3394 23.5992 24.3855 23.4879 24.3856 23.3719L24.3872 16.6079C24.3872 13.0726 23.6254 10.3552 19.494 10.3552C17.9235 10.2968 16.4424 11.1064 15.6432 12.4582C15.6393 12.4648 15.6334 12.4699 15.6263 12.4728C15.6192 12.4757 15.6114 12.4761 15.604 12.4741C15.5966 12.4721 15.5901 12.4678 15.5854 12.4617C15.5808 12.4557 15.5782 12.4483 15.5781 12.4406V11.1191C15.5781 11.003 15.5321 10.8917 15.45 10.8097C15.368 10.7277 15.2567 10.6816 15.1406 10.6816H12.1025C11.9865 10.6816 11.8752 10.7277 11.7932 10.8097C11.7111 10.8917 11.665 11.003 11.665 11.1191V23.3712C11.665 23.4873 11.7111 23.5986 11.7932 23.6806C11.8752 23.7627 11.9865 23.8087 12.1025 23.8087H15.3037C15.4198 23.8087 15.531 23.7627 15.6131 23.6806C15.6951 23.5986 15.7412 23.4873 15.7412 23.3712V17.3148C15.7412 15.6023 16.0661 13.9439 18.1891 13.9439C20.282 13.9439 20.3092 15.9035 20.3092 17.4257V23.3718C20.3092 23.4878 20.3553 23.5991 20.4373 23.6812C20.5193 23.7632 20.6306 23.8093 20.7467 23.8093ZM4.69971 6.52181C4.69971 7.81944 5.76797 8.88716 7.06571 8.88716C8.36311 8.88705 9.43072 7.81867 9.43072 6.52127C9.4305 5.22386 8.36278 4.15625 7.06527 4.15625C5.76743 4.15625 4.69971 5.22419 4.69971 6.52181ZM5.46085 23.8093H8.6663C8.78233 23.8093 8.89361 23.7632 8.97566 23.6812C9.05771 23.5991 9.1038 23.4878 9.1038 23.3718V11.1191C9.1038 11.003 9.05771 10.8917 8.97566 10.8097C8.89361 10.7277 8.78233 10.6816 8.6663 10.6816H5.46085C5.34482 10.6816 5.23354 10.7277 5.15149 10.8097C5.06944 10.8917 5.02335 11.003 5.02335 11.1191V23.3718C5.02335 23.4878 5.06944 23.5991 5.15149 23.6812C5.23354 23.7632 5.34482 23.8093 5.46085 23.8093Z" fill="white"/>
</g>
<defs>
<clipPath id="clip0_62_618">
<rect width="28" height="28" fill="white" transform="translate(0.543457)"/>
</clipPath>
</defs>
</svg>
