<svg width="40" height="40" viewBox="0 0 40 40" fill="none" xmlns="http://www.w3.org/2000/svg">
<g clip-path="url(#clip0_162_4148)">
<g clip-path="url(#clip1_162_4148)">
<path fill-rule="evenodd" clip-rule="evenodd" d="M10.0003 13.3333V16.1805C7.92578 18.5309 6.66699 21.6184 6.66699 24.9999C6.66699 32.3637 12.6365 38.3333 20.0003 38.3333C27.3641 38.3333 33.3337 32.3637 33.3337 24.9999C33.3337 21.6184 32.0749 18.5309 30.0003 16.1805V13.3333C30.0003 7.8104 25.5232 3.33325 20.0003 3.33325C14.4775 3.33325 10.0003 7.8104 10.0003 13.3333ZM20.0003 6.66659C16.3184 6.66659 13.3337 9.65135 13.3337 13.3333V13.4503C15.2948 12.3159 17.5717 11.6666 20.0003 11.6666C22.4289 11.6666 24.7058 12.3159 26.667 13.4503V13.3333C26.667 9.65135 23.6822 6.66659 20.0003 6.66659ZM21.667 23.3333C21.667 22.4128 20.9208 21.6666 20.0003 21.6666C19.0799 21.6666 18.3337 22.4128 18.3337 23.3333V26.6666C18.3337 27.5871 19.0799 28.3333 20.0003 28.3333C20.9208 28.3333 21.667 27.5871 21.667 26.6666V23.3333Z" fill="#094C9F"/>
</g>
</g>
<defs>
<clipPath id="clip0_162_4148">
<rect width="40" height="40" fill="white"/>
</clipPath>
<clipPath id="clip1_162_4148">
<rect width="40" height="40" fill="white"/>
</clipPath>
</defs>
</svg>
