<svg width="25" height="25" viewBox="0 0 25 25" fill="none" xmlns="http://www.w3.org/2000/svg">
<path d="M11.71 14H12.71V8H11.71V14ZM14.71 12.5H15.71V9H14.71V12.5ZM8.70996 12H9.70996V9H8.70996V12ZM7.20996 21.5V17.738C6.25996 16.8713 5.52263 15.8973 4.99796 14.816C4.47329 13.7347 4.21063 12.6247 4.20996 11.486C4.20996 9.268 4.98763 7.38233 6.54296 5.829C8.09829 4.27567 9.98729 3.49933 12.21 3.5C14.0113 3.5 15.6393 4.04833 17.094 5.145C18.5486 6.24167 19.492 7.65833 19.924 9.395L20.96 13.498C21.0266 13.7513 20.9793 13.982 20.818 14.19C20.6566 14.3967 20.4413 14.5 20.172 14.5H18.21V17.885C18.21 18.329 18.0516 18.709 17.735 19.025C17.4183 19.341 17.0383 19.4993 16.595 19.5H14.21V21.5H13.21V18.5H16.595C16.7743 18.5 16.9216 18.4423 17.037 18.327C17.1523 18.2117 17.21 18.0643 17.21 17.885V13.5H19.91L18.96 9.625C18.5766 8.09567 17.7533 6.859 16.49 5.915C15.2286 4.97167 13.802 4.5 12.21 4.5C10.2766 4.5 8.62663 5.17667 7.25996 6.53C5.89329 7.88467 5.20996 9.53133 5.20996 11.47C5.20996 12.466 5.41429 13.4127 5.82296 14.31C6.23096 15.2073 6.80996 16.0047 7.55996 16.702L8.20996 17.3V21.5H7.20996Z" fill="#3E3E3E"/>
</svg>
