<svg width="33" height="32" viewBox="0 0 33 32" fill="none" xmlns="http://www.w3.org/2000/svg">
<path d="M15.8333 16.6667H9.16668C8.97734 16.6667 8.81912 16.6027 8.69201 16.4747C8.5649 16.3467 8.5009 16.188 8.50001 15.9987C8.49912 15.8093 8.56312 15.6511 8.69201 15.524C8.8209 15.3969 8.97912 15.3333 9.16668 15.3333H15.8333V8.66668C15.8333 8.47734 15.8973 8.31912 16.0253 8.19201C16.1533 8.0649 16.312 8.0009 16.5013 8.00001C16.6907 7.99912 16.8489 8.06312 16.976 8.19201C17.1031 8.3209 17.1667 8.47912 17.1667 8.66668V15.3333H23.8333C24.0227 15.3333 24.1809 15.3973 24.308 15.5253C24.4351 15.6533 24.4991 15.812 24.5 16.0013C24.5009 16.1907 24.4369 16.3489 24.308 16.476C24.1791 16.6031 24.0209 16.6667 23.8333 16.6667H17.1667V23.3333C17.1667 23.5227 17.1027 23.6809 16.9747 23.808C16.8467 23.9351 16.688 23.9991 16.4987 24C16.3093 24.0009 16.1511 23.9369 16.024 23.808C15.8969 23.6791 15.8333 23.5209 15.8333 23.3333V16.6667Z" fill="#094C9F"/>
</svg>
