<svg width="16" height="16" viewBox="0 0 16 16" fill="none" xmlns="http://www.w3.org/2000/svg">
<g clip-path="url(#clip0_158_2700)">
<path d="M12.4444 3.55512H10.7289C10.5526 3.22228 10.3212 2.92173 10.0444 2.66623H12.4444C12.5623 2.66623 12.6754 2.61941 12.7587 2.53606C12.8421 2.45271 12.8889 2.33966 12.8889 2.22179C12.8889 2.10391 12.8421 1.99087 12.7587 1.90752C12.6754 1.82417 12.5623 1.77734 12.4444 1.77734H4.44444C4.32657 1.77734 4.21352 1.82417 4.13017 1.90752C4.04683 1.99087 4 2.10391 4 2.22179C4 2.33966 4.04683 2.45271 4.13017 2.53606C4.21352 2.61941 4.32657 2.66623 4.44444 2.66623H7.8C8.15761 2.66655 8.51067 2.74648 8.83355 2.90023C9.15642 3.05398 9.44101 3.27769 9.66667 3.55512H4.44444C4.32657 3.55512 4.21352 3.60195 4.13017 3.6853C4.04683 3.76865 4 3.88169 4 3.99957C4 4.11744 4.04683 4.23049 4.13017 4.31384C4.21352 4.39719 4.32657 4.44401 4.44444 4.44401H10.1289C10.191 4.6623 10.2224 4.88817 10.2222 5.11512C10.2234 5.75954 9.96916 6.37816 9.51515 6.83549C9.06115 7.29283 8.44441 7.5516 7.8 7.55512H4.95111C4.8657 7.55523 4.78213 7.57995 4.7104 7.62631C4.63867 7.67268 4.58182 7.73874 4.54665 7.81657C4.51148 7.89441 4.49949 7.98073 4.5121 8.06521C4.52472 8.14968 4.56141 8.22873 4.61778 8.2929L9.80444 14.2218C9.84208 14.2685 9.88878 14.3071 9.94174 14.3353C9.99471 14.3635 10.0528 14.3807 10.1126 14.3858C10.1724 14.3909 10.2326 14.3839 10.2896 14.3652C10.3466 14.3464 10.3991 14.3163 10.4442 14.2766C10.4892 14.237 10.5258 14.1887 10.5516 14.1345C10.5775 14.0804 10.5921 14.0216 10.5946 13.9616C10.5971 13.9017 10.5875 13.8419 10.5663 13.7857C10.545 13.7296 10.5127 13.6784 10.4711 13.6351L5.93333 8.44401H7.80444C8.29665 8.44004 8.78189 8.32725 9.22539 8.11372C9.66889 7.9002 10.0597 7.59123 10.3697 7.20895C10.6798 6.82667 10.9015 6.38054 11.0189 5.90253C11.1363 5.42451 11.1466 4.92645 11.0489 4.44401H12.4444C12.5623 4.44401 12.6754 4.39719 12.7587 4.31384C12.8421 4.23049 12.8889 4.11744 12.8889 3.99957C12.8889 3.88169 12.8421 3.76865 12.7587 3.6853C12.6754 3.60195 12.5623 3.55512 12.4444 3.55512Z" fill="#3E3E3E"/>
</g>
<defs>
<clipPath id="clip0_158_2700">
<rect width="16" height="16" fill="white"/>
</clipPath>
</defs>
</svg>
