<svg width="48" height="48" viewBox="0 0 48 48" fill="none" xmlns="http://www.w3.org/2000/svg">
<path d="M32.5 26.9998C32.8978 26.9998 33.2793 26.8418 33.5606 26.5605C33.8419 26.2792 34 25.8976 34 25.4998C34 25.102 33.8419 24.7205 33.5606 24.4391C33.2793 24.1578 32.8978 23.9998 32.5 23.9998C32.1021 23.9998 31.7206 24.1578 31.4393 24.4391C31.158 24.7205 31 25.102 31 25.4998C31 25.8976 31.158 26.2792 31.4393 26.5605C31.7206 26.8418 32.1021 26.9998 32.5 26.9998ZM22.84 12.2098C24.103 11.8368 25.537 11.9148 26.82 12.8228H21.46C21.8923 12.5612 22.356 12.3552 22.84 12.2098Z" fill="black"/>
<path fill-rule="evenodd" clip-rule="evenodd" d="M21.46 12.8233H26.82C28.147 13.7583 28.941 15.3193 28.996 16.9293C29.084 19.4473 27.736 21.5793 26.151 23.3133C24.922 24.6563 23.437 25.8753 22.171 26.9153C21.807 27.2133 21.461 27.4963 21.146 27.7643L20.495 28.3143L19.848 27.7583C19.5 27.4593 19.114 27.1403 18.708 26.8033C17.474 25.7833 16.044 24.6003 14.858 23.3093C13.273 21.5813 11.922 19.4563 12.004 16.9313V16.9293C12.059 15.3193 12.853 13.7573 14.181 12.8223H19.537C19.881 13.0296 20.202 13.2629 20.5 13.5223C20.7996 13.2621 21.1208 13.028 21.46 12.8223M21.27 15.5843C21.821 14.9183 22.6 14.3663 23.407 14.1273C24.191 13.8953 24.967 13.9613 25.664 14.4553L25.667 14.4573C26.452 15.0093 26.962 15.9743 26.997 16.9973C27.057 18.7303 26.135 20.3663 24.675 21.9623C23.553 23.1893 22.225 24.2803 20.974 25.3073L20.504 25.6933C20.3034 25.5253 20.0997 25.3563 19.893 25.1863C18.684 24.1863 17.416 23.1363 16.333 21.9563C14.872 20.3653 13.946 18.7363 14.003 16.9963C14.038 15.9733 14.547 15.0093 15.333 14.4563C16.03 13.9663 16.809 13.8993 17.593 14.1313C18.401 14.3693 19.179 14.9183 19.729 15.5843L20.499 16.5163L21.27 15.5843Z" fill="black"/>
<path d="M19.5372 12.8229H14.1802C15.4622 11.9199 16.8962 11.8409 18.1582 12.2129C18.6412 12.3559 19.1052 12.5649 19.5362 12.8229" fill="black"/>
<path fill-rule="evenodd" clip-rule="evenodd" d="M41.969 29.576C42.311 27.702 39.715 25.366 39.715 25.366C38.836 23.546 38.859 22.006 38.885 20.259C38.892 19.764 38.9 19.252 38.887 18.712C38.8232 16.3494 38.0531 14.06 36.676 12.139C35.1342 10.2722 33.1466 8.82422 30.897 7.92904C27.9979 6.65091 24.8633 5.99381 21.695 6.00004C17.532 6.00004 13.54 7.57404 10.597 10.376C7.654 13.178 6 16.978 6 20.94C6 25.707 8.814 29.384 12.467 32.114V38.563C13.503 40.671 17.413 42.166 19.697 41.985C23.111 41.985 24.547 40.64 25.097 39.843C25.329 39.507 25.404 39.269 25.404 39.269V37.846C25.404 37.846 26.204 38.108 27.404 38.345C31.014 39.057 38.245 39.539 38.245 31.967C38.245 31.967 41.627 31.449 41.969 29.576ZM37.913 26.236L38.084 26.591L38.374 26.851L38.376 26.853L38.383 26.86L38.44 26.913C38.493 26.965 38.574 27.043 38.671 27.145C38.87 27.352 39.124 27.638 39.363 27.96C39.608 28.29 39.797 28.607 39.907 28.879C39.966 29.024 39.987 29.119 39.995 29.173L39.944 29.221C39.799 29.344 39.556 29.487 39.221 29.624C38.8099 29.7891 38.383 29.9118 37.947 29.99L37.937 29.992L36.245 30.25V31.968C36.245 34.031 35.611 35.051 34.943 35.62C34.199 36.253 33.083 36.605 31.695 36.695C30.328 36.785 28.91 36.605 27.797 36.385C27.2345 36.2743 26.6772 36.1382 26.127 35.977L26.042 35.951L26.027 35.946H26.024L23.404 35.086V38.772C23.3126 38.8882 23.2087 38.9938 23.094 39.087C22.682 39.429 21.725 39.987 19.697 39.987H19.617L19.539 39.992C18.825 40.049 17.615 39.83 16.422 39.304C15.448 38.874 14.801 38.38 14.467 37.984V31.114L13.664 30.514C10.271 27.976 8 24.822 8 20.94C8 17.54 9.418 14.26 11.976 11.824C14.537 9.38604 18.032 8.00004 21.695 8.00004H21.697C24.5864 7.99393 27.445 8.59277 30.089 9.75804L30.121 9.77204L30.153 9.78504C32.098 10.565 33.793 11.796 35.086 13.355C36.2089 14.9388 36.8361 16.8203 36.888 18.761C36.897 19.159 36.889 19.578 36.881 20.017C36.847 21.818 36.808 23.945 37.913 26.236Z" fill="black"/>
</svg>
