<svg width="56" height="56" viewBox="0 0 56 56" fill="none" xmlns="http://www.w3.org/2000/svg">
<path d="M51.3332 13.1047V42.899C51.3332 43.935 50.9637 44.8217 50.2248 45.559C49.486 46.2963 48.5993 46.6658 47.5648 46.6673H38.4998C38.1685 46.6673 37.8916 46.5553 37.6692 46.3313C37.4467 46.1073 37.3347 45.8297 37.3332 45.4983C37.3316 45.167 37.4436 44.8901 37.6692 44.6677C37.8947 44.4452 38.1716 44.334 38.4998 44.334H47.5648C47.9833 44.334 48.3271 44.1994 48.5962 43.9303C48.8653 43.6612 48.9998 43.3174 48.9998 42.899V13.1023C48.9998 12.6839 48.8653 12.3401 48.5962 12.071C48.3271 11.8019 47.9833 11.6673 47.5648 11.6673H27.9998C27.5798 11.6673 27.2361 11.8019 26.9685 12.071C26.6994 12.3401 26.5648 12.6847 26.5648 13.1047V15.8417C26.5648 16.1714 26.4528 16.4483 26.2288 16.6723C26.0048 16.8963 25.7272 17.0083 25.3958 17.0083C25.0645 17.0083 24.7876 16.8963 24.5652 16.6723C24.3427 16.4483 24.2307 16.1714 24.2292 15.8417V13.0767C24.2292 12.0531 24.5978 11.1734 25.3352 10.4377C26.0694 9.70187 26.9483 9.33398 27.9718 9.33398H47.5648C48.6008 9.33398 49.4875 9.70343 50.2248 10.4423C50.9622 11.1812 51.3316 12.0679 51.3332 13.1023M4.6665 28.78C4.6665 28.1811 4.80417 27.604 5.0795 27.0487C5.35484 26.4918 5.74373 26.0445 6.24617 25.707L16.4778 18.441C16.8263 18.1937 17.1825 18.0163 17.5465 17.909C17.9105 17.8001 18.2823 17.7457 18.6618 17.7457C19.0414 17.7457 19.4147 17.8001 19.7818 17.909C20.1489 18.0179 20.5067 18.1952 20.8552 18.441L31.0868 25.707C31.5893 26.0445 31.9782 26.4918 32.2535 27.0487C32.5288 27.604 32.6665 28.1811 32.6665 28.78V42.9013C32.6665 43.9373 32.2971 44.824 31.5582 45.5613C30.8193 46.2987 29.9326 46.6681 28.8982 46.6697H25.3982C24.3606 46.6697 23.4732 46.3002 22.7358 45.5613C21.9985 44.8224 21.6291 43.9358 21.6275 42.9013V36.1673H15.7055V42.899C15.7055 43.935 15.3361 44.8217 14.5972 45.559C13.8583 46.2963 12.9716 46.6658 11.9372 46.6673H8.43717C7.39962 46.6673 6.51217 46.2979 5.77484 45.559C5.0375 44.8201 4.66806 43.9342 4.6665 42.9013V28.78ZM6.99984 28.766V42.9013C6.99984 43.3198 7.13439 43.6635 7.4035 43.9327C7.67262 44.2018 8.01717 44.3363 8.43717 44.3363H11.9372C12.3556 44.3363 12.6994 44.2018 12.9685 43.9327C13.2376 43.6635 13.3722 43.3198 13.3722 42.9013V36.2583C13.3722 35.5739 13.6047 34.9991 14.0698 34.534C14.5349 34.0689 15.1105 33.8363 15.7965 33.8363H21.5365C22.2225 33.8363 22.7981 34.0689 23.2632 34.534C23.7283 34.9991 23.9616 35.5747 23.9632 36.2607V42.899C23.9632 43.319 24.097 43.6635 24.3645 43.9327C24.6336 44.2018 24.9774 44.3363 25.3958 44.3363H28.8958C29.3158 44.3363 29.6604 44.2018 29.9295 43.9327C30.1986 43.6635 30.3332 43.319 30.3332 42.899V28.766C30.3332 28.5264 30.2811 28.3017 30.1768 28.0917C30.0726 27.8817 29.9155 27.7028 29.7055 27.555L19.4738 20.3917C19.2343 20.2128 18.9652 20.1233 18.6665 20.1233C18.3678 20.1233 18.0987 20.2135 17.8592 20.394L7.6275 27.555C7.41906 27.7043 7.26195 27.8832 7.15617 28.0917C7.05195 28.3017 6.99984 28.5264 6.99984 28.766ZM41.1482 20.464H42.8515C43.1035 20.464 43.3236 20.3691 43.5118 20.1793C43.7001 19.9911 43.7942 19.771 43.7942 19.519V17.8157C43.7942 17.5637 43.7001 17.3435 43.5118 17.1553C43.3236 16.9671 43.1035 16.873 42.8515 16.873H41.1482C40.8962 16.873 40.6761 16.9671 40.4878 17.1553C40.2996 17.3435 40.2055 17.5629 40.2055 17.8133V19.519C40.2055 19.771 40.2996 19.9911 40.4878 20.1793C40.6761 20.3675 40.8962 20.4617 41.1482 20.4617M41.1482 29.795H42.8515C43.1035 29.795 43.3236 29.7009 43.5118 29.5127C43.7001 29.3244 43.7942 29.1043 43.7942 28.8523V27.149C43.7942 26.897 43.7001 26.6769 43.5118 26.4887C43.3236 26.3004 43.1035 26.2063 42.8515 26.2063H41.1482C40.8962 26.2063 40.6761 26.3004 40.4878 26.4887C40.2996 26.6769 40.2055 26.8962 40.2055 27.1467V28.8523C40.2055 29.1043 40.2996 29.3244 40.4878 29.5127C40.6761 29.7009 40.8962 29.795 41.1482 29.795ZM41.1482 39.1283H42.8515C43.1035 39.1283 43.3236 39.0342 43.5118 38.846C43.7001 38.6578 43.7942 38.4377 43.7942 38.1857V36.4823C43.7942 36.2303 43.7001 36.0102 43.5118 35.822C43.3236 35.6338 43.1035 35.5397 42.8515 35.5397H41.1482C40.8962 35.5397 40.6761 35.6338 40.4878 35.822C40.2996 36.0102 40.2055 36.2303 40.2055 36.4823V38.1857C40.2055 38.4377 40.2996 38.6578 40.4878 38.846C40.6761 39.0342 40.8962 39.1283 41.1482 39.1283Z" fill="black"/>
</svg>
