<svg width="50" height="50" viewBox="0 0 50 50" fill="none" xmlns="http://www.w3.org/2000/svg">
<path d="M23.6512 14.214C24.2882 13.626 24.6079 13.332 24.9999 13.332C25.3919 13.332 25.7116 13.626 26.3486 14.214L27.4359 15.2174C27.7696 15.5277 27.9376 15.6817 28.1499 15.747C28.3646 15.8124 28.5932 15.782 29.0552 15.719L30.5532 15.5184C31.4306 15.3994 31.8716 15.341 32.1866 15.5604C32.5062 15.7797 32.5832 16.1974 32.7349 17.0304L32.9962 18.4514C33.0779 18.89 33.1176 19.107 33.2506 19.282C33.3812 19.4547 33.5866 19.5574 33.9972 19.7674L35.3342 20.444C36.1182 20.8407 36.5102 21.0367 36.6316 21.3937C36.7529 21.7507 36.5569 22.1287 36.1672 22.8894L35.5046 24.1867C35.2992 24.5834 35.1966 24.784 35.1966 24.9987C35.1966 25.2134 35.2992 25.4117 35.5046 25.8107L36.1672 27.108C36.5569 27.8687 36.7506 28.249 36.6316 28.6037C36.5102 28.9607 36.1182 29.159 35.3342 29.5557L33.9972 30.2324C33.5866 30.44 33.3812 30.5427 33.2506 30.7154C33.1176 30.8904 33.0779 31.1074 32.9962 31.546L32.7349 32.967C32.5832 33.8 32.5062 34.2177 32.1889 34.437C31.8716 34.6564 31.4306 34.598 30.5532 34.479L29.0552 34.2784C28.5956 34.2154 28.3646 34.185 28.1499 34.2504C27.9376 34.3157 27.7696 34.472 27.4359 34.78L26.3486 35.7834C25.7116 36.3714 25.3919 36.6654 24.9999 36.6654C24.6079 36.6654 24.2882 36.3714 23.6512 35.7834L22.5639 34.78C22.2302 34.4697 22.0622 34.3157 21.8499 34.2504C21.6352 34.185 21.4066 34.2154 20.9446 34.2784L19.4466 34.479C18.5692 34.598 18.1282 34.6564 17.8132 34.437C17.4936 34.2177 17.4166 33.8 17.2649 32.967L17.0036 31.546C16.9219 31.1097 16.8822 30.8904 16.7516 30.7177C16.6186 30.5427 16.4132 30.4377 16.0026 30.23L14.6656 29.5534C13.8816 29.1567 13.4896 28.9607 13.3682 28.6037C13.2469 28.2467 13.4429 27.8687 13.8326 27.108L14.4952 25.8107C14.7006 25.414 14.8032 25.2134 14.8032 24.9987C14.8032 24.784 14.7006 24.5857 14.4952 24.1867L13.8326 22.8894C13.4429 22.1287 13.2492 21.7484 13.3682 21.3937C13.4896 21.0367 13.8816 20.8384 14.6656 20.4417L16.0026 19.765C16.4132 19.5574 16.6186 19.4547 16.7492 19.282C16.8822 19.107 16.9219 18.89 17.0036 18.4514L17.2649 17.0304C17.4166 16.1974 17.4936 15.7797 17.8109 15.5604C18.1282 15.341 18.5692 15.3994 19.4466 15.5184L20.9446 15.719C21.4042 15.782 21.6352 15.8124 21.8499 15.747C22.0622 15.6817 22.2302 15.5277 22.5639 15.2174L23.6512 14.214Z" stroke="black" stroke-width="1.5" stroke-linecap="round" stroke-linejoin="round"/>
<path d="M12.1269 5.53472C11.7024 5.06625 11.1872 4.6889 10.6124 4.42559C10.0377 4.16227 9.41549 4.01847 8.78351 4.00291C8.15153 3.98735 7.52298 4.10035 6.93599 4.33507C6.34901 4.56978 5.81583 4.92131 5.36881 5.36833C4.9218 5.81534 4.57027 6.34852 4.33556 6.9355C4.10084 7.52249 3.98783 8.15104 4.00339 8.78302C4.01895 9.415 4.16276 10.0372 4.42607 10.612C4.68939 11.1867 5.06674 11.7019 5.53521 12.1264M12.1269 5.53472C12.9312 6.42243 13.3634 7.58547 13.3339 8.78302C13.3044 9.98058 12.8155 11.1209 11.9685 11.968C11.1214 12.815 9.98107 13.3039 8.78351 13.3334C7.58595 13.3629 6.42292 12.9307 5.53521 12.1264M12.1269 5.53472C15.9425 3.00402 20.4213 1.65804 24.9999 1.66605C37.8869 1.66605 48.3332 12.1124 48.3332 24.9994C48.341 29.5618 47.0044 34.0255 44.4902 37.8327M5.53521 12.1264C3.00451 15.942 1.65853 20.4208 1.66654 24.9994C1.66654 37.8864 12.1129 48.3327 24.9999 48.3327C29.5785 48.3407 34.0572 46.9947 37.8729 44.464M37.8729 44.464C38.7034 45.3818 39.8644 45.932 41.1006 45.9937C42.3367 46.0554 43.5468 45.6235 44.4645 44.793C45.3823 43.9626 45.9325 42.8015 45.9942 41.5654C46.0559 40.3292 45.624 39.1191 44.7935 38.2014C44.3823 37.747 43.8856 37.378 43.3318 37.1155C42.778 36.8531 42.1779 36.7023 41.5658 36.6717C40.9538 36.6412 40.3416 36.7315 39.7644 36.9375C39.1873 37.1435 38.6563 37.4612 38.2019 37.8724C37.7475 38.2836 37.3785 38.7803 37.116 39.3341C36.8536 39.8879 36.7027 40.488 36.6722 41.1001C36.6105 42.3363 37.0424 43.5463 37.8729 44.464Z" stroke="black" stroke-width="1.5" stroke-linecap="round" stroke-linejoin="round"/>
</svg>
