<svg width="18" height="18" viewBox="0 0 18 18" fill="none" xmlns="http://www.w3.org/2000/svg">
<g clip-path="url(#clip0_123_10422)">
<path d="M4.8001 8.99961L8.4001 11.9996L13.2001 5.99961M9.0001 17.3996C7.89699 17.3996 6.80469 17.1823 5.78556 16.7602C4.76642 16.3381 3.84041 15.7193 3.0604 14.9393C2.28039 14.1593 1.66165 13.2333 1.23951 12.2141C0.81737 11.195 0.600098 10.1027 0.600098 8.99961C0.600098 7.89651 0.81737 6.8042 1.23951 5.78507C1.66165 4.76593 2.28039 3.83992 3.0604 3.05991C3.84041 2.2799 4.76642 1.66116 5.78556 1.23902C6.80469 0.816882 7.89699 0.599609 9.0001 0.599609C11.2279 0.599609 13.3645 1.48461 14.9398 3.05991C16.5151 4.63522 17.4001 6.77179 17.4001 8.99961C17.4001 11.2274 16.5151 13.364 14.9398 14.9393C13.3645 16.5146 11.2279 17.3996 9.0001 17.3996Z" stroke="#094C9F"/>
</g>
<defs>
<clipPath id="clip0_123_10422">
<rect width="18" height="18" fill="white"/>
</clipPath>
</defs>
</svg>
