<svg width="20" height="21" viewBox="0 0 20 21" fill="none" xmlns="http://www.w3.org/2000/svg">
<path d="M7.29174 14.6663C7.29136 14.5841 7.30737 14.5028 7.33886 14.4269C7.37034 14.3511 7.41665 14.2823 7.47508 14.2246L11.2001 10.4996L7.50008 6.77458C7.42392 6.65712 7.3894 6.51749 7.40206 6.37807C7.41471 6.23865 7.47381 6.10751 7.56988 6.00568C7.66594 5.90385 7.79341 5.83722 7.93186 5.81647C8.07031 5.79573 8.21171 5.82206 8.33341 5.89125L12.5001 10.0579C12.6171 10.1751 12.6829 10.334 12.6829 10.4996C12.6829 10.6652 12.6171 10.8241 12.5001 10.9413L8.33341 15.1079C8.21622 15.225 8.05737 15.2907 7.89174 15.2907C7.72612 15.2907 7.56727 15.225 7.45008 15.1079C7.34117 14.9873 7.28427 14.8286 7.29174 14.6663Z" fill="#3E3E3E" fill-opacity="0.8"/>
</svg>
