<svg width="21" height="20" viewBox="0 0 21 20" fill="none" xmlns="http://www.w3.org/2000/svg">
<path fill-rule="evenodd" clip-rule="evenodd" d="M9.66699 1.66797C5.52485 1.66797 2.16699 5.02584 2.16699 9.16797C2.16699 13.3101 5.52485 16.668 9.66699 16.668C11.4378 16.668 13.0653 16.0542 14.3484 15.0279L17.411 18.0906C17.7365 18.416 18.2641 18.416 18.5895 18.0906C18.915 17.7651 18.915 17.2375 18.5895 16.912L15.5269 13.8494C16.5532 12.5663 17.1669 10.9388 17.1669 9.16797C17.1669 5.02584 13.8091 1.66797 9.66699 1.66797ZM3.83365 9.16797C3.83365 5.94631 6.44533 3.33464 9.66699 3.33464C12.8886 3.33464 15.5003 5.94631 15.5003 9.16797C15.5003 12.3896 12.8886 15.0013 9.66699 15.0013C6.44533 15.0013 3.83365 12.3896 3.83365 9.16797Z" fill="#FEFEFE"/>
</svg>
