<svg width="29" height="28" viewBox="0 0 29 28" fill="none" xmlns="http://www.w3.org/2000/svg">
<path d="M22.9556 8.54688C22.9556 8.79102 22.9556 8.98633 22.9556 9.23047C22.9556 16.0176 17.8286 23.7812 8.40479 23.7812C5.4751 23.7812 2.78955 22.9512 0.543457 21.4863C0.934082 21.5352 1.32471 21.584 1.76416 21.584C4.15674 21.584 6.354 20.7539 8.11182 19.3867C5.86572 19.3379 3.96143 17.873 3.32666 15.8223C3.66846 15.8711 3.96143 15.9199 4.30322 15.9199C4.74268 15.9199 5.23096 15.8223 5.62158 15.7246C3.27783 15.2363 1.52002 13.1855 1.52002 10.6953V10.6465C2.20361 11.0371 3.03369 11.2324 3.86377 11.2812C2.44775 10.3535 1.56885 8.79102 1.56885 7.0332C1.56885 6.05664 1.81299 5.17773 2.25244 4.44531C4.7915 7.52148 8.6001 9.57227 12.8481 9.81641C12.7505 9.42578 12.7017 9.03516 12.7017 8.64453C12.7017 5.8125 14.9966 3.51758 17.8286 3.51758C19.2935 3.51758 20.6118 4.10352 21.5884 5.12891C22.7114 4.88477 23.8345 4.44531 24.811 3.85938C24.4204 5.08008 23.6392 6.05664 22.5649 6.69141C23.5903 6.59375 24.6157 6.30078 25.4946 5.91016C24.811 6.93555 23.9321 7.81445 22.9556 8.54688Z" fill="#094C9F"/>
</svg>
