<svg width="36" height="37" viewBox="0 0 36 37" fill="none" xmlns="http://www.w3.org/2000/svg">
<path d="M31.083 11.7815C30.1335 11.2715 28.9815 11.3255 28.0815 11.9225L23.5665 14.9225C23.2665 11.267 20.2305 8.375 16.5 8.375H10.5C6.5715 8.375 3.375 11.5715 3.375 15.5V21.5C3.375 25.4285 6.5715 28.625 10.5 28.625H16.5C20.2305 28.625 23.2665 25.733 23.5665 22.0775L28.0815 25.079C28.572 25.403 29.1345 25.5681 29.7 25.5681C30.174 25.5681 30.6495 25.4525 31.083 25.22C32.034 24.71 32.625 23.7214 32.625 22.6429V14.3585C32.625 13.2785 32.034 12.2915 31.083 11.7815ZM21.375 21.5015C21.375 24.1895 19.188 26.3765 16.5 26.3765H10.5C7.812 26.3765 5.625 24.1895 5.625 21.5015V15.5015C5.625 12.8135 7.812 10.6265 10.5 10.6265H16.5C19.188 10.6265 21.375 12.8135 21.375 15.5015V21.5015ZM30.375 22.6429C30.375 23.0074 30.126 23.1799 30.0195 23.2369C29.9115 23.2954 29.6325 23.4049 29.3265 23.2054L23.625 19.4164V17.585L29.3265 13.796C29.6325 13.5935 29.913 13.7059 30.0195 13.7629C30.126 13.8199 30.375 13.9926 30.375 14.3571V22.6429Z" fill="#FEFEFE"/>
</svg>
